%TF.GenerationSoftware,KiCad,Pcbnew,(6.0.4)*%
%TF.CreationDate,2022-05-05T12:14:13+01:00*%
%TF.ProjectId,LCC-QFP-44-to-DIL,4c43432d-5146-4502-9d34-342d746f2d44,rev?*%
%TF.SameCoordinates,Original*%
%TF.FileFunction,Legend,Top*%
%TF.FilePolarity,Positive*%
%FSLAX46Y46*%
G04 Gerber Fmt 4.6, Leading zero omitted, Abs format (unit mm)*
G04 Created by KiCad (PCBNEW (6.0.4)) date 2022-05-05 12:14:13*
%MOMM*%
%LPD*%
G01*
G04 APERTURE LIST*
%ADD10C,0.150000*%
%ADD11C,0.120000*%
G04 APERTURE END LIST*
D10*
X134429523Y-116022380D02*
X133858095Y-116022380D01*
X134143809Y-116022380D02*
X134143809Y-115022380D01*
X134048571Y-115165238D01*
X133953333Y-115260476D01*
X133858095Y-115308095D01*
X135048571Y-115022380D02*
X135143809Y-115022380D01*
X135239047Y-115070000D01*
X135286666Y-115117619D01*
X135334285Y-115212857D01*
X135381904Y-115403333D01*
X135381904Y-115641428D01*
X135334285Y-115831904D01*
X135286666Y-115927142D01*
X135239047Y-115974761D01*
X135143809Y-116022380D01*
X135048571Y-116022380D01*
X134953333Y-115974761D01*
X134905714Y-115927142D01*
X134858095Y-115831904D01*
X134810476Y-115641428D01*
X134810476Y-115403333D01*
X134858095Y-115212857D01*
X134905714Y-115117619D01*
X134953333Y-115070000D01*
X135048571Y-115022380D01*
X146558095Y-135437619D02*
X146605714Y-135390000D01*
X146700952Y-135342380D01*
X146939047Y-135342380D01*
X147034285Y-135390000D01*
X147081904Y-135437619D01*
X147129523Y-135532857D01*
X147129523Y-135628095D01*
X147081904Y-135770952D01*
X146510476Y-136342380D01*
X147129523Y-136342380D01*
X147462857Y-135342380D02*
X148129523Y-135342380D01*
X147700952Y-136342380D01*
X146558095Y-132897619D02*
X146605714Y-132850000D01*
X146700952Y-132802380D01*
X146939047Y-132802380D01*
X147034285Y-132850000D01*
X147081904Y-132897619D01*
X147129523Y-132992857D01*
X147129523Y-133088095D01*
X147081904Y-133230952D01*
X146510476Y-133802380D01*
X147129523Y-133802380D01*
X147700952Y-133230952D02*
X147605714Y-133183333D01*
X147558095Y-133135714D01*
X147510476Y-133040476D01*
X147510476Y-132992857D01*
X147558095Y-132897619D01*
X147605714Y-132850000D01*
X147700952Y-132802380D01*
X147891428Y-132802380D01*
X147986666Y-132850000D01*
X148034285Y-132897619D01*
X148081904Y-132992857D01*
X148081904Y-133040476D01*
X148034285Y-133135714D01*
X147986666Y-133183333D01*
X147891428Y-133230952D01*
X147700952Y-133230952D01*
X147605714Y-133278571D01*
X147558095Y-133326190D01*
X147510476Y-133421428D01*
X147510476Y-133611904D01*
X147558095Y-133707142D01*
X147605714Y-133754761D01*
X147700952Y-133802380D01*
X147891428Y-133802380D01*
X147986666Y-133754761D01*
X148034285Y-133707142D01*
X148081904Y-133611904D01*
X148081904Y-133421428D01*
X148034285Y-133326190D01*
X147986666Y-133278571D01*
X147891428Y-133230952D01*
X146558095Y-145597619D02*
X146605714Y-145550000D01*
X146700952Y-145502380D01*
X146939047Y-145502380D01*
X147034285Y-145550000D01*
X147081904Y-145597619D01*
X147129523Y-145692857D01*
X147129523Y-145788095D01*
X147081904Y-145930952D01*
X146510476Y-146502380D01*
X147129523Y-146502380D01*
X147462857Y-145502380D02*
X148081904Y-145502380D01*
X147748571Y-145883333D01*
X147891428Y-145883333D01*
X147986666Y-145930952D01*
X148034285Y-145978571D01*
X148081904Y-146073809D01*
X148081904Y-146311904D01*
X148034285Y-146407142D01*
X147986666Y-146454761D01*
X147891428Y-146502380D01*
X147605714Y-146502380D01*
X147510476Y-146454761D01*
X147462857Y-146407142D01*
X133858095Y-140517619D02*
X133905714Y-140470000D01*
X134000952Y-140422380D01*
X134239047Y-140422380D01*
X134334285Y-140470000D01*
X134381904Y-140517619D01*
X134429523Y-140612857D01*
X134429523Y-140708095D01*
X134381904Y-140850952D01*
X133810476Y-141422380D01*
X134429523Y-141422380D01*
X135048571Y-140422380D02*
X135143809Y-140422380D01*
X135239047Y-140470000D01*
X135286666Y-140517619D01*
X135334285Y-140612857D01*
X135381904Y-140803333D01*
X135381904Y-141041428D01*
X135334285Y-141231904D01*
X135286666Y-141327142D01*
X135239047Y-141374761D01*
X135143809Y-141422380D01*
X135048571Y-141422380D01*
X134953333Y-141374761D01*
X134905714Y-141327142D01*
X134858095Y-141231904D01*
X134810476Y-141041428D01*
X134810476Y-140803333D01*
X134858095Y-140612857D01*
X134905714Y-140517619D01*
X134953333Y-140470000D01*
X135048571Y-140422380D01*
X146510476Y-104862380D02*
X147129523Y-104862380D01*
X146796190Y-105243333D01*
X146939047Y-105243333D01*
X147034285Y-105290952D01*
X147081904Y-105338571D01*
X147129523Y-105433809D01*
X147129523Y-105671904D01*
X147081904Y-105767142D01*
X147034285Y-105814761D01*
X146939047Y-105862380D01*
X146653333Y-105862380D01*
X146558095Y-105814761D01*
X146510476Y-105767142D01*
X147605714Y-105862380D02*
X147796190Y-105862380D01*
X147891428Y-105814761D01*
X147939047Y-105767142D01*
X148034285Y-105624285D01*
X148081904Y-105433809D01*
X148081904Y-105052857D01*
X148034285Y-104957619D01*
X147986666Y-104910000D01*
X147891428Y-104862380D01*
X147700952Y-104862380D01*
X147605714Y-104910000D01*
X147558095Y-104957619D01*
X147510476Y-105052857D01*
X147510476Y-105290952D01*
X147558095Y-105386190D01*
X147605714Y-105433809D01*
X147700952Y-105481428D01*
X147891428Y-105481428D01*
X147986666Y-105433809D01*
X148034285Y-105386190D01*
X148081904Y-105290952D01*
X147034285Y-100115714D02*
X147034285Y-100782380D01*
X146796190Y-99734761D02*
X146558095Y-100449047D01*
X147177142Y-100449047D01*
X148081904Y-100782380D02*
X147510476Y-100782380D01*
X147796190Y-100782380D02*
X147796190Y-99782380D01*
X147700952Y-99925238D01*
X147605714Y-100020476D01*
X147510476Y-100068095D01*
X147034285Y-92495714D02*
X147034285Y-93162380D01*
X146796190Y-92114761D02*
X146558095Y-92829047D01*
X147177142Y-92829047D01*
X147986666Y-92495714D02*
X147986666Y-93162380D01*
X147748571Y-92114761D02*
X147510476Y-92829047D01*
X148129523Y-92829047D01*
X147034285Y-95035714D02*
X147034285Y-95702380D01*
X146796190Y-94654761D02*
X146558095Y-95369047D01*
X147177142Y-95369047D01*
X147462857Y-94702380D02*
X148081904Y-94702380D01*
X147748571Y-95083333D01*
X147891428Y-95083333D01*
X147986666Y-95130952D01*
X148034285Y-95178571D01*
X148081904Y-95273809D01*
X148081904Y-95511904D01*
X148034285Y-95607142D01*
X147986666Y-95654761D01*
X147891428Y-95702380D01*
X147605714Y-95702380D01*
X147510476Y-95654761D01*
X147462857Y-95607142D01*
X146558095Y-130357619D02*
X146605714Y-130310000D01*
X146700952Y-130262380D01*
X146939047Y-130262380D01*
X147034285Y-130310000D01*
X147081904Y-130357619D01*
X147129523Y-130452857D01*
X147129523Y-130548095D01*
X147081904Y-130690952D01*
X146510476Y-131262380D01*
X147129523Y-131262380D01*
X147605714Y-131262380D02*
X147796190Y-131262380D01*
X147891428Y-131214761D01*
X147939047Y-131167142D01*
X148034285Y-131024285D01*
X148081904Y-130833809D01*
X148081904Y-130452857D01*
X148034285Y-130357619D01*
X147986666Y-130310000D01*
X147891428Y-130262380D01*
X147700952Y-130262380D01*
X147605714Y-130310000D01*
X147558095Y-130357619D01*
X147510476Y-130452857D01*
X147510476Y-130690952D01*
X147558095Y-130786190D01*
X147605714Y-130833809D01*
X147700952Y-130881428D01*
X147891428Y-130881428D01*
X147986666Y-130833809D01*
X148034285Y-130786190D01*
X148081904Y-130690952D01*
X146510476Y-127722380D02*
X147129523Y-127722380D01*
X146796190Y-128103333D01*
X146939047Y-128103333D01*
X147034285Y-128150952D01*
X147081904Y-128198571D01*
X147129523Y-128293809D01*
X147129523Y-128531904D01*
X147081904Y-128627142D01*
X147034285Y-128674761D01*
X146939047Y-128722380D01*
X146653333Y-128722380D01*
X146558095Y-128674761D01*
X146510476Y-128627142D01*
X147748571Y-127722380D02*
X147843809Y-127722380D01*
X147939047Y-127770000D01*
X147986666Y-127817619D01*
X148034285Y-127912857D01*
X148081904Y-128103333D01*
X148081904Y-128341428D01*
X148034285Y-128531904D01*
X147986666Y-128627142D01*
X147939047Y-128674761D01*
X147843809Y-128722380D01*
X147748571Y-128722380D01*
X147653333Y-128674761D01*
X147605714Y-128627142D01*
X147558095Y-128531904D01*
X147510476Y-128341428D01*
X147510476Y-128103333D01*
X147558095Y-127912857D01*
X147605714Y-127817619D01*
X147653333Y-127770000D01*
X147748571Y-127722380D01*
X134334285Y-94797619D02*
X134381904Y-94750000D01*
X134477142Y-94702380D01*
X134715238Y-94702380D01*
X134810476Y-94750000D01*
X134858095Y-94797619D01*
X134905714Y-94892857D01*
X134905714Y-94988095D01*
X134858095Y-95130952D01*
X134286666Y-95702380D01*
X134905714Y-95702380D01*
X146510476Y-125182380D02*
X147129523Y-125182380D01*
X146796190Y-125563333D01*
X146939047Y-125563333D01*
X147034285Y-125610952D01*
X147081904Y-125658571D01*
X147129523Y-125753809D01*
X147129523Y-125991904D01*
X147081904Y-126087142D01*
X147034285Y-126134761D01*
X146939047Y-126182380D01*
X146653333Y-126182380D01*
X146558095Y-126134761D01*
X146510476Y-126087142D01*
X148081904Y-126182380D02*
X147510476Y-126182380D01*
X147796190Y-126182380D02*
X147796190Y-125182380D01*
X147700952Y-125325238D01*
X147605714Y-125420476D01*
X147510476Y-125468095D01*
X134905714Y-93162380D02*
X134334285Y-93162380D01*
X134620000Y-93162380D02*
X134620000Y-92162380D01*
X134524761Y-92305238D01*
X134429523Y-92400476D01*
X134334285Y-92448095D01*
X134286666Y-107402380D02*
X134953333Y-107402380D01*
X134524761Y-108402380D01*
X134429523Y-121102380D02*
X133858095Y-121102380D01*
X134143809Y-121102380D02*
X134143809Y-120102380D01*
X134048571Y-120245238D01*
X133953333Y-120340476D01*
X133858095Y-120388095D01*
X134810476Y-120197619D02*
X134858095Y-120150000D01*
X134953333Y-120102380D01*
X135191428Y-120102380D01*
X135286666Y-120150000D01*
X135334285Y-120197619D01*
X135381904Y-120292857D01*
X135381904Y-120388095D01*
X135334285Y-120530952D01*
X134762857Y-121102380D01*
X135381904Y-121102380D01*
X134429523Y-128722380D02*
X133858095Y-128722380D01*
X134143809Y-128722380D02*
X134143809Y-127722380D01*
X134048571Y-127865238D01*
X133953333Y-127960476D01*
X133858095Y-128008095D01*
X135334285Y-127722380D02*
X134858095Y-127722380D01*
X134810476Y-128198571D01*
X134858095Y-128150952D01*
X134953333Y-128103333D01*
X135191428Y-128103333D01*
X135286666Y-128150952D01*
X135334285Y-128198571D01*
X135381904Y-128293809D01*
X135381904Y-128531904D01*
X135334285Y-128627142D01*
X135286666Y-128674761D01*
X135191428Y-128722380D01*
X134953333Y-128722380D01*
X134858095Y-128674761D01*
X134810476Y-128627142D01*
X134429523Y-133802380D02*
X133858095Y-133802380D01*
X134143809Y-133802380D02*
X134143809Y-132802380D01*
X134048571Y-132945238D01*
X133953333Y-133040476D01*
X133858095Y-133088095D01*
X134762857Y-132802380D02*
X135429523Y-132802380D01*
X135000952Y-133802380D01*
X134858095Y-102322380D02*
X134381904Y-102322380D01*
X134334285Y-102798571D01*
X134381904Y-102750952D01*
X134477142Y-102703333D01*
X134715238Y-102703333D01*
X134810476Y-102750952D01*
X134858095Y-102798571D01*
X134905714Y-102893809D01*
X134905714Y-103131904D01*
X134858095Y-103227142D01*
X134810476Y-103274761D01*
X134715238Y-103322380D01*
X134477142Y-103322380D01*
X134381904Y-103274761D01*
X134334285Y-103227142D01*
X147034285Y-102655714D02*
X147034285Y-103322380D01*
X146796190Y-102274761D02*
X146558095Y-102989047D01*
X147177142Y-102989047D01*
X147748571Y-102322380D02*
X147843809Y-102322380D01*
X147939047Y-102370000D01*
X147986666Y-102417619D01*
X148034285Y-102512857D01*
X148081904Y-102703333D01*
X148081904Y-102941428D01*
X148034285Y-103131904D01*
X147986666Y-103227142D01*
X147939047Y-103274761D01*
X147843809Y-103322380D01*
X147748571Y-103322380D01*
X147653333Y-103274761D01*
X147605714Y-103227142D01*
X147558095Y-103131904D01*
X147510476Y-102941428D01*
X147510476Y-102703333D01*
X147558095Y-102512857D01*
X147605714Y-102417619D01*
X147653333Y-102370000D01*
X147748571Y-102322380D01*
X134429523Y-123642380D02*
X133858095Y-123642380D01*
X134143809Y-123642380D02*
X134143809Y-122642380D01*
X134048571Y-122785238D01*
X133953333Y-122880476D01*
X133858095Y-122928095D01*
X134762857Y-122642380D02*
X135381904Y-122642380D01*
X135048571Y-123023333D01*
X135191428Y-123023333D01*
X135286666Y-123070952D01*
X135334285Y-123118571D01*
X135381904Y-123213809D01*
X135381904Y-123451904D01*
X135334285Y-123547142D01*
X135286666Y-123594761D01*
X135191428Y-123642380D01*
X134905714Y-123642380D01*
X134810476Y-123594761D01*
X134762857Y-123547142D01*
X146510476Y-115022380D02*
X147129523Y-115022380D01*
X146796190Y-115403333D01*
X146939047Y-115403333D01*
X147034285Y-115450952D01*
X147081904Y-115498571D01*
X147129523Y-115593809D01*
X147129523Y-115831904D01*
X147081904Y-115927142D01*
X147034285Y-115974761D01*
X146939047Y-116022380D01*
X146653333Y-116022380D01*
X146558095Y-115974761D01*
X146510476Y-115927142D01*
X148034285Y-115022380D02*
X147558095Y-115022380D01*
X147510476Y-115498571D01*
X147558095Y-115450952D01*
X147653333Y-115403333D01*
X147891428Y-115403333D01*
X147986666Y-115450952D01*
X148034285Y-115498571D01*
X148081904Y-115593809D01*
X148081904Y-115831904D01*
X148034285Y-115927142D01*
X147986666Y-115974761D01*
X147891428Y-116022380D01*
X147653333Y-116022380D01*
X147558095Y-115974761D01*
X147510476Y-115927142D01*
X147034285Y-97575714D02*
X147034285Y-98242380D01*
X146796190Y-97194761D02*
X146558095Y-97909047D01*
X147177142Y-97909047D01*
X147510476Y-97337619D02*
X147558095Y-97290000D01*
X147653333Y-97242380D01*
X147891428Y-97242380D01*
X147986666Y-97290000D01*
X148034285Y-97337619D01*
X148081904Y-97432857D01*
X148081904Y-97528095D01*
X148034285Y-97670952D01*
X147462857Y-98242380D01*
X148081904Y-98242380D01*
X146510476Y-122642380D02*
X147129523Y-122642380D01*
X146796190Y-123023333D01*
X146939047Y-123023333D01*
X147034285Y-123070952D01*
X147081904Y-123118571D01*
X147129523Y-123213809D01*
X147129523Y-123451904D01*
X147081904Y-123547142D01*
X147034285Y-123594761D01*
X146939047Y-123642380D01*
X146653333Y-123642380D01*
X146558095Y-123594761D01*
X146510476Y-123547142D01*
X147510476Y-122737619D02*
X147558095Y-122690000D01*
X147653333Y-122642380D01*
X147891428Y-122642380D01*
X147986666Y-122690000D01*
X148034285Y-122737619D01*
X148081904Y-122832857D01*
X148081904Y-122928095D01*
X148034285Y-123070952D01*
X147462857Y-123642380D01*
X148081904Y-123642380D01*
X146510476Y-120102380D02*
X147129523Y-120102380D01*
X146796190Y-120483333D01*
X146939047Y-120483333D01*
X147034285Y-120530952D01*
X147081904Y-120578571D01*
X147129523Y-120673809D01*
X147129523Y-120911904D01*
X147081904Y-121007142D01*
X147034285Y-121054761D01*
X146939047Y-121102380D01*
X146653333Y-121102380D01*
X146558095Y-121054761D01*
X146510476Y-121007142D01*
X147462857Y-120102380D02*
X148081904Y-120102380D01*
X147748571Y-120483333D01*
X147891428Y-120483333D01*
X147986666Y-120530952D01*
X148034285Y-120578571D01*
X148081904Y-120673809D01*
X148081904Y-120911904D01*
X148034285Y-121007142D01*
X147986666Y-121054761D01*
X147891428Y-121102380D01*
X147605714Y-121102380D01*
X147510476Y-121054761D01*
X147462857Y-121007142D01*
X133858095Y-145597619D02*
X133905714Y-145550000D01*
X134000952Y-145502380D01*
X134239047Y-145502380D01*
X134334285Y-145550000D01*
X134381904Y-145597619D01*
X134429523Y-145692857D01*
X134429523Y-145788095D01*
X134381904Y-145930952D01*
X133810476Y-146502380D01*
X134429523Y-146502380D01*
X134810476Y-145597619D02*
X134858095Y-145550000D01*
X134953333Y-145502380D01*
X135191428Y-145502380D01*
X135286666Y-145550000D01*
X135334285Y-145597619D01*
X135381904Y-145692857D01*
X135381904Y-145788095D01*
X135334285Y-145930952D01*
X134762857Y-146502380D01*
X135381904Y-146502380D01*
X146510476Y-117562380D02*
X147129523Y-117562380D01*
X146796190Y-117943333D01*
X146939047Y-117943333D01*
X147034285Y-117990952D01*
X147081904Y-118038571D01*
X147129523Y-118133809D01*
X147129523Y-118371904D01*
X147081904Y-118467142D01*
X147034285Y-118514761D01*
X146939047Y-118562380D01*
X146653333Y-118562380D01*
X146558095Y-118514761D01*
X146510476Y-118467142D01*
X147986666Y-117895714D02*
X147986666Y-118562380D01*
X147748571Y-117514761D02*
X147510476Y-118229047D01*
X148129523Y-118229047D01*
X134429523Y-113482380D02*
X134620000Y-113482380D01*
X134715238Y-113434761D01*
X134762857Y-113387142D01*
X134858095Y-113244285D01*
X134905714Y-113053809D01*
X134905714Y-112672857D01*
X134858095Y-112577619D01*
X134810476Y-112530000D01*
X134715238Y-112482380D01*
X134524761Y-112482380D01*
X134429523Y-112530000D01*
X134381904Y-112577619D01*
X134334285Y-112672857D01*
X134334285Y-112910952D01*
X134381904Y-113006190D01*
X134429523Y-113053809D01*
X134524761Y-113101428D01*
X134715238Y-113101428D01*
X134810476Y-113053809D01*
X134858095Y-113006190D01*
X134905714Y-112910952D01*
X134810476Y-100115714D02*
X134810476Y-100782380D01*
X134572380Y-99734761D02*
X134334285Y-100449047D01*
X134953333Y-100449047D01*
X146510476Y-109942380D02*
X147129523Y-109942380D01*
X146796190Y-110323333D01*
X146939047Y-110323333D01*
X147034285Y-110370952D01*
X147081904Y-110418571D01*
X147129523Y-110513809D01*
X147129523Y-110751904D01*
X147081904Y-110847142D01*
X147034285Y-110894761D01*
X146939047Y-110942380D01*
X146653333Y-110942380D01*
X146558095Y-110894761D01*
X146510476Y-110847142D01*
X147462857Y-109942380D02*
X148129523Y-109942380D01*
X147700952Y-110942380D01*
X146558095Y-137977619D02*
X146605714Y-137930000D01*
X146700952Y-137882380D01*
X146939047Y-137882380D01*
X147034285Y-137930000D01*
X147081904Y-137977619D01*
X147129523Y-138072857D01*
X147129523Y-138168095D01*
X147081904Y-138310952D01*
X146510476Y-138882380D01*
X147129523Y-138882380D01*
X147986666Y-137882380D02*
X147796190Y-137882380D01*
X147700952Y-137930000D01*
X147653333Y-137977619D01*
X147558095Y-138120476D01*
X147510476Y-138310952D01*
X147510476Y-138691904D01*
X147558095Y-138787142D01*
X147605714Y-138834761D01*
X147700952Y-138882380D01*
X147891428Y-138882380D01*
X147986666Y-138834761D01*
X148034285Y-138787142D01*
X148081904Y-138691904D01*
X148081904Y-138453809D01*
X148034285Y-138358571D01*
X147986666Y-138310952D01*
X147891428Y-138263333D01*
X147700952Y-138263333D01*
X147605714Y-138310952D01*
X147558095Y-138358571D01*
X147510476Y-138453809D01*
X134429523Y-131262380D02*
X133858095Y-131262380D01*
X134143809Y-131262380D02*
X134143809Y-130262380D01*
X134048571Y-130405238D01*
X133953333Y-130500476D01*
X133858095Y-130548095D01*
X135286666Y-130262380D02*
X135096190Y-130262380D01*
X135000952Y-130310000D01*
X134953333Y-130357619D01*
X134858095Y-130500476D01*
X134810476Y-130690952D01*
X134810476Y-131071904D01*
X134858095Y-131167142D01*
X134905714Y-131214761D01*
X135000952Y-131262380D01*
X135191428Y-131262380D01*
X135286666Y-131214761D01*
X135334285Y-131167142D01*
X135381904Y-131071904D01*
X135381904Y-130833809D01*
X135334285Y-130738571D01*
X135286666Y-130690952D01*
X135191428Y-130643333D01*
X135000952Y-130643333D01*
X134905714Y-130690952D01*
X134858095Y-130738571D01*
X134810476Y-130833809D01*
X146558095Y-140517619D02*
X146605714Y-140470000D01*
X146700952Y-140422380D01*
X146939047Y-140422380D01*
X147034285Y-140470000D01*
X147081904Y-140517619D01*
X147129523Y-140612857D01*
X147129523Y-140708095D01*
X147081904Y-140850952D01*
X146510476Y-141422380D01*
X147129523Y-141422380D01*
X148034285Y-140422380D02*
X147558095Y-140422380D01*
X147510476Y-140898571D01*
X147558095Y-140850952D01*
X147653333Y-140803333D01*
X147891428Y-140803333D01*
X147986666Y-140850952D01*
X148034285Y-140898571D01*
X148081904Y-140993809D01*
X148081904Y-141231904D01*
X148034285Y-141327142D01*
X147986666Y-141374761D01*
X147891428Y-141422380D01*
X147653333Y-141422380D01*
X147558095Y-141374761D01*
X147510476Y-141327142D01*
X134286666Y-97242380D02*
X134905714Y-97242380D01*
X134572380Y-97623333D01*
X134715238Y-97623333D01*
X134810476Y-97670952D01*
X134858095Y-97718571D01*
X134905714Y-97813809D01*
X134905714Y-98051904D01*
X134858095Y-98147142D01*
X134810476Y-98194761D01*
X134715238Y-98242380D01*
X134429523Y-98242380D01*
X134334285Y-98194761D01*
X134286666Y-98147142D01*
X134429523Y-118562380D02*
X133858095Y-118562380D01*
X134143809Y-118562380D02*
X134143809Y-117562380D01*
X134048571Y-117705238D01*
X133953333Y-117800476D01*
X133858095Y-117848095D01*
X135381904Y-118562380D02*
X134810476Y-118562380D01*
X135096190Y-118562380D02*
X135096190Y-117562380D01*
X135000952Y-117705238D01*
X134905714Y-117800476D01*
X134810476Y-117848095D01*
X146558095Y-143057619D02*
X146605714Y-143010000D01*
X146700952Y-142962380D01*
X146939047Y-142962380D01*
X147034285Y-143010000D01*
X147081904Y-143057619D01*
X147129523Y-143152857D01*
X147129523Y-143248095D01*
X147081904Y-143390952D01*
X146510476Y-143962380D01*
X147129523Y-143962380D01*
X147986666Y-143295714D02*
X147986666Y-143962380D01*
X147748571Y-142914761D02*
X147510476Y-143629047D01*
X148129523Y-143629047D01*
X134524761Y-110370952D02*
X134429523Y-110323333D01*
X134381904Y-110275714D01*
X134334285Y-110180476D01*
X134334285Y-110132857D01*
X134381904Y-110037619D01*
X134429523Y-109990000D01*
X134524761Y-109942380D01*
X134715238Y-109942380D01*
X134810476Y-109990000D01*
X134858095Y-110037619D01*
X134905714Y-110132857D01*
X134905714Y-110180476D01*
X134858095Y-110275714D01*
X134810476Y-110323333D01*
X134715238Y-110370952D01*
X134524761Y-110370952D01*
X134429523Y-110418571D01*
X134381904Y-110466190D01*
X134334285Y-110561428D01*
X134334285Y-110751904D01*
X134381904Y-110847142D01*
X134429523Y-110894761D01*
X134524761Y-110942380D01*
X134715238Y-110942380D01*
X134810476Y-110894761D01*
X134858095Y-110847142D01*
X134905714Y-110751904D01*
X134905714Y-110561428D01*
X134858095Y-110466190D01*
X134810476Y-110418571D01*
X134715238Y-110370952D01*
X133858095Y-143057619D02*
X133905714Y-143010000D01*
X134000952Y-142962380D01*
X134239047Y-142962380D01*
X134334285Y-143010000D01*
X134381904Y-143057619D01*
X134429523Y-143152857D01*
X134429523Y-143248095D01*
X134381904Y-143390952D01*
X133810476Y-143962380D01*
X134429523Y-143962380D01*
X135381904Y-143962380D02*
X134810476Y-143962380D01*
X135096190Y-143962380D02*
X135096190Y-142962380D01*
X135000952Y-143105238D01*
X134905714Y-143200476D01*
X134810476Y-143248095D01*
X134429523Y-136342380D02*
X133858095Y-136342380D01*
X134143809Y-136342380D02*
X134143809Y-135342380D01*
X134048571Y-135485238D01*
X133953333Y-135580476D01*
X133858095Y-135628095D01*
X135000952Y-135770952D02*
X134905714Y-135723333D01*
X134858095Y-135675714D01*
X134810476Y-135580476D01*
X134810476Y-135532857D01*
X134858095Y-135437619D01*
X134905714Y-135390000D01*
X135000952Y-135342380D01*
X135191428Y-135342380D01*
X135286666Y-135390000D01*
X135334285Y-135437619D01*
X135381904Y-135532857D01*
X135381904Y-135580476D01*
X135334285Y-135675714D01*
X135286666Y-135723333D01*
X135191428Y-135770952D01*
X135000952Y-135770952D01*
X134905714Y-135818571D01*
X134858095Y-135866190D01*
X134810476Y-135961428D01*
X134810476Y-136151904D01*
X134858095Y-136247142D01*
X134905714Y-136294761D01*
X135000952Y-136342380D01*
X135191428Y-136342380D01*
X135286666Y-136294761D01*
X135334285Y-136247142D01*
X135381904Y-136151904D01*
X135381904Y-135961428D01*
X135334285Y-135866190D01*
X135286666Y-135818571D01*
X135191428Y-135770952D01*
X134429523Y-138882380D02*
X133858095Y-138882380D01*
X134143809Y-138882380D02*
X134143809Y-137882380D01*
X134048571Y-138025238D01*
X133953333Y-138120476D01*
X133858095Y-138168095D01*
X134905714Y-138882380D02*
X135096190Y-138882380D01*
X135191428Y-138834761D01*
X135239047Y-138787142D01*
X135334285Y-138644285D01*
X135381904Y-138453809D01*
X135381904Y-138072857D01*
X135334285Y-137977619D01*
X135286666Y-137930000D01*
X135191428Y-137882380D01*
X135000952Y-137882380D01*
X134905714Y-137930000D01*
X134858095Y-137977619D01*
X134810476Y-138072857D01*
X134810476Y-138310952D01*
X134858095Y-138406190D01*
X134905714Y-138453809D01*
X135000952Y-138501428D01*
X135191428Y-138501428D01*
X135286666Y-138453809D01*
X135334285Y-138406190D01*
X135381904Y-138310952D01*
X134429523Y-126182380D02*
X133858095Y-126182380D01*
X134143809Y-126182380D02*
X134143809Y-125182380D01*
X134048571Y-125325238D01*
X133953333Y-125420476D01*
X133858095Y-125468095D01*
X135286666Y-125515714D02*
X135286666Y-126182380D01*
X135048571Y-125134761D02*
X134810476Y-125849047D01*
X135429523Y-125849047D01*
X132897619Y-151415714D02*
X132897619Y-150844285D01*
X132897619Y-151130000D02*
X133897619Y-151130000D01*
X133754761Y-151034761D01*
X133659523Y-150939523D01*
X133611904Y-150844285D01*
X146510476Y-112482380D02*
X147129523Y-112482380D01*
X146796190Y-112863333D01*
X146939047Y-112863333D01*
X147034285Y-112910952D01*
X147081904Y-112958571D01*
X147129523Y-113053809D01*
X147129523Y-113291904D01*
X147081904Y-113387142D01*
X147034285Y-113434761D01*
X146939047Y-113482380D01*
X146653333Y-113482380D01*
X146558095Y-113434761D01*
X146510476Y-113387142D01*
X147986666Y-112482380D02*
X147796190Y-112482380D01*
X147700952Y-112530000D01*
X147653333Y-112577619D01*
X147558095Y-112720476D01*
X147510476Y-112910952D01*
X147510476Y-113291904D01*
X147558095Y-113387142D01*
X147605714Y-113434761D01*
X147700952Y-113482380D01*
X147891428Y-113482380D01*
X147986666Y-113434761D01*
X148034285Y-113387142D01*
X148081904Y-113291904D01*
X148081904Y-113053809D01*
X148034285Y-112958571D01*
X147986666Y-112910952D01*
X147891428Y-112863333D01*
X147700952Y-112863333D01*
X147605714Y-112910952D01*
X147558095Y-112958571D01*
X147510476Y-113053809D01*
X134810476Y-104862380D02*
X134620000Y-104862380D01*
X134524761Y-104910000D01*
X134477142Y-104957619D01*
X134381904Y-105100476D01*
X134334285Y-105290952D01*
X134334285Y-105671904D01*
X134381904Y-105767142D01*
X134429523Y-105814761D01*
X134524761Y-105862380D01*
X134715238Y-105862380D01*
X134810476Y-105814761D01*
X134858095Y-105767142D01*
X134905714Y-105671904D01*
X134905714Y-105433809D01*
X134858095Y-105338571D01*
X134810476Y-105290952D01*
X134715238Y-105243333D01*
X134524761Y-105243333D01*
X134429523Y-105290952D01*
X134381904Y-105338571D01*
X134334285Y-105433809D01*
X146510476Y-107402380D02*
X147129523Y-107402380D01*
X146796190Y-107783333D01*
X146939047Y-107783333D01*
X147034285Y-107830952D01*
X147081904Y-107878571D01*
X147129523Y-107973809D01*
X147129523Y-108211904D01*
X147081904Y-108307142D01*
X147034285Y-108354761D01*
X146939047Y-108402380D01*
X146653333Y-108402380D01*
X146558095Y-108354761D01*
X146510476Y-108307142D01*
X147700952Y-107830952D02*
X147605714Y-107783333D01*
X147558095Y-107735714D01*
X147510476Y-107640476D01*
X147510476Y-107592857D01*
X147558095Y-107497619D01*
X147605714Y-107450000D01*
X147700952Y-107402380D01*
X147891428Y-107402380D01*
X147986666Y-107450000D01*
X148034285Y-107497619D01*
X148081904Y-107592857D01*
X148081904Y-107640476D01*
X148034285Y-107735714D01*
X147986666Y-107783333D01*
X147891428Y-107830952D01*
X147700952Y-107830952D01*
X147605714Y-107878571D01*
X147558095Y-107926190D01*
X147510476Y-108021428D01*
X147510476Y-108211904D01*
X147558095Y-108307142D01*
X147605714Y-108354761D01*
X147700952Y-108402380D01*
X147891428Y-108402380D01*
X147986666Y-108354761D01*
X148034285Y-108307142D01*
X148081904Y-108211904D01*
X148081904Y-108021428D01*
X148034285Y-107926190D01*
X147986666Y-107878571D01*
X147891428Y-107830952D01*
%TO.C,IC2*%
X131103809Y-164282380D02*
X131103809Y-163282380D01*
X132151428Y-164187142D02*
X132103809Y-164234761D01*
X131960952Y-164282380D01*
X131865714Y-164282380D01*
X131722857Y-164234761D01*
X131627619Y-164139523D01*
X131580000Y-164044285D01*
X131532380Y-163853809D01*
X131532380Y-163710952D01*
X131580000Y-163520476D01*
X131627619Y-163425238D01*
X131722857Y-163330000D01*
X131865714Y-163282380D01*
X131960952Y-163282380D01*
X132103809Y-163330000D01*
X132151428Y-163377619D01*
X132532380Y-163377619D02*
X132580000Y-163330000D01*
X132675238Y-163282380D01*
X132913333Y-163282380D01*
X133008571Y-163330000D01*
X133056190Y-163377619D01*
X133103809Y-163472857D01*
X133103809Y-163568095D01*
X133056190Y-163710952D01*
X132484761Y-164282380D01*
X133103809Y-164282380D01*
X136350952Y-164377619D02*
X136255714Y-164330000D01*
X136160476Y-164234761D01*
X136017619Y-164091904D01*
X135922380Y-164044285D01*
X135827142Y-164044285D01*
X135874761Y-164282380D02*
X135779523Y-164234761D01*
X135684285Y-164139523D01*
X135636666Y-163949047D01*
X135636666Y-163615714D01*
X135684285Y-163425238D01*
X135779523Y-163330000D01*
X135874761Y-163282380D01*
X136065238Y-163282380D01*
X136160476Y-163330000D01*
X136255714Y-163425238D01*
X136303333Y-163615714D01*
X136303333Y-163949047D01*
X136255714Y-164139523D01*
X136160476Y-164234761D01*
X136065238Y-164282380D01*
X135874761Y-164282380D01*
X137065238Y-163758571D02*
X136731904Y-163758571D01*
X136731904Y-164282380D02*
X136731904Y-163282380D01*
X137208095Y-163282380D01*
X137589047Y-164282380D02*
X137589047Y-163282380D01*
X137970000Y-163282380D01*
X138065238Y-163330000D01*
X138112857Y-163377619D01*
X138160476Y-163472857D01*
X138160476Y-163615714D01*
X138112857Y-163710952D01*
X138065238Y-163758571D01*
X137970000Y-163806190D01*
X137589047Y-163806190D01*
X139779523Y-163615714D02*
X139779523Y-164282380D01*
X139541428Y-163234761D02*
X139303333Y-163949047D01*
X139922380Y-163949047D01*
X140731904Y-163615714D02*
X140731904Y-164282380D01*
X140493809Y-163234761D02*
X140255714Y-163949047D01*
X140874761Y-163949047D01*
X141874761Y-163615714D02*
X142255714Y-163615714D01*
X142017619Y-163282380D02*
X142017619Y-164139523D01*
X142065238Y-164234761D01*
X142160476Y-164282380D01*
X142255714Y-164282380D01*
X142731904Y-164282380D02*
X142636666Y-164234761D01*
X142589047Y-164187142D01*
X142541428Y-164091904D01*
X142541428Y-163806190D01*
X142589047Y-163710952D01*
X142636666Y-163663333D01*
X142731904Y-163615714D01*
X142874761Y-163615714D01*
X142970000Y-163663333D01*
X143017619Y-163710952D01*
X143065238Y-163806190D01*
X143065238Y-164091904D01*
X143017619Y-164187142D01*
X142970000Y-164234761D01*
X142874761Y-164282380D01*
X142731904Y-164282380D01*
X144255714Y-164282380D02*
X144255714Y-163282380D01*
X144493809Y-163282380D01*
X144636666Y-163330000D01*
X144731904Y-163425238D01*
X144779523Y-163520476D01*
X144827142Y-163710952D01*
X144827142Y-163853809D01*
X144779523Y-164044285D01*
X144731904Y-164139523D01*
X144636666Y-164234761D01*
X144493809Y-164282380D01*
X144255714Y-164282380D01*
X145255714Y-164282380D02*
X145255714Y-163282380D01*
X145731904Y-164282380D02*
X145731904Y-163282380D01*
X146112857Y-163282380D01*
X146208095Y-163330000D01*
X146255714Y-163377619D01*
X146303333Y-163472857D01*
X146303333Y-163615714D01*
X146255714Y-163710952D01*
X146208095Y-163758571D01*
X146112857Y-163806190D01*
X145731904Y-163806190D01*
%TO.C,IC1*%
X132373809Y-65172380D02*
X132373809Y-64172380D01*
X133421428Y-65077142D02*
X133373809Y-65124761D01*
X133230952Y-65172380D01*
X133135714Y-65172380D01*
X132992857Y-65124761D01*
X132897619Y-65029523D01*
X132850000Y-64934285D01*
X132802380Y-64743809D01*
X132802380Y-64600952D01*
X132850000Y-64410476D01*
X132897619Y-64315238D01*
X132992857Y-64220000D01*
X133135714Y-64172380D01*
X133230952Y-64172380D01*
X133373809Y-64220000D01*
X133421428Y-64267619D01*
X134373809Y-65172380D02*
X133802380Y-65172380D01*
X134088095Y-65172380D02*
X134088095Y-64172380D01*
X133992857Y-64315238D01*
X133897619Y-64410476D01*
X133802380Y-64458095D01*
X135231904Y-65222380D02*
X135231904Y-64222380D01*
X135612857Y-64222380D01*
X135708095Y-64270000D01*
X135755714Y-64317619D01*
X135803333Y-64412857D01*
X135803333Y-64555714D01*
X135755714Y-64650952D01*
X135708095Y-64698571D01*
X135612857Y-64746190D01*
X135231904Y-64746190D01*
X136708095Y-65222380D02*
X136231904Y-65222380D01*
X136231904Y-64222380D01*
X137612857Y-65127142D02*
X137565238Y-65174761D01*
X137422380Y-65222380D01*
X137327142Y-65222380D01*
X137184285Y-65174761D01*
X137089047Y-65079523D01*
X137041428Y-64984285D01*
X136993809Y-64793809D01*
X136993809Y-64650952D01*
X137041428Y-64460476D01*
X137089047Y-64365238D01*
X137184285Y-64270000D01*
X137327142Y-64222380D01*
X137422380Y-64222380D01*
X137565238Y-64270000D01*
X137612857Y-64317619D01*
X138612857Y-65127142D02*
X138565238Y-65174761D01*
X138422380Y-65222380D01*
X138327142Y-65222380D01*
X138184285Y-65174761D01*
X138089047Y-65079523D01*
X138041428Y-64984285D01*
X137993809Y-64793809D01*
X137993809Y-64650952D01*
X138041428Y-64460476D01*
X138089047Y-64365238D01*
X138184285Y-64270000D01*
X138327142Y-64222380D01*
X138422380Y-64222380D01*
X138565238Y-64270000D01*
X138612857Y-64317619D01*
X140231904Y-64555714D02*
X140231904Y-65222380D01*
X139993809Y-64174761D02*
X139755714Y-64889047D01*
X140374761Y-64889047D01*
X141184285Y-64555714D02*
X141184285Y-65222380D01*
X140946190Y-64174761D02*
X140708095Y-64889047D01*
X141327142Y-64889047D01*
X142327142Y-64555714D02*
X142708095Y-64555714D01*
X142470000Y-64222380D02*
X142470000Y-65079523D01*
X142517619Y-65174761D01*
X142612857Y-65222380D01*
X142708095Y-65222380D01*
X143184285Y-65222380D02*
X143089047Y-65174761D01*
X143041428Y-65127142D01*
X142993809Y-65031904D01*
X142993809Y-64746190D01*
X143041428Y-64650952D01*
X143089047Y-64603333D01*
X143184285Y-64555714D01*
X143327142Y-64555714D01*
X143422380Y-64603333D01*
X143470000Y-64650952D01*
X143517619Y-64746190D01*
X143517619Y-65031904D01*
X143470000Y-65127142D01*
X143422380Y-65174761D01*
X143327142Y-65222380D01*
X143184285Y-65222380D01*
X144708095Y-65222380D02*
X144708095Y-64222380D01*
X144946190Y-64222380D01*
X145089047Y-64270000D01*
X145184285Y-64365238D01*
X145231904Y-64460476D01*
X145279523Y-64650952D01*
X145279523Y-64793809D01*
X145231904Y-64984285D01*
X145184285Y-65079523D01*
X145089047Y-65174761D01*
X144946190Y-65222380D01*
X144708095Y-65222380D01*
X145708095Y-65222380D02*
X145708095Y-64222380D01*
X146184285Y-65222380D02*
X146184285Y-64222380D01*
X146565238Y-64222380D01*
X146660476Y-64270000D01*
X146708095Y-64317619D01*
X146755714Y-64412857D01*
X146755714Y-64555714D01*
X146708095Y-64650952D01*
X146660476Y-64698571D01*
X146565238Y-64746190D01*
X146184285Y-64746190D01*
%TO.C,IC2*%
X135795000Y-149765000D02*
X136470000Y-149765000D01*
X135795000Y-160115000D02*
X135795000Y-159440000D01*
X146145000Y-149765000D02*
X146145000Y-150440000D01*
X135795000Y-160115000D02*
X136470000Y-160115000D01*
X135795000Y-150340000D02*
X134520000Y-150340000D01*
X146145000Y-149765000D02*
X145470000Y-149765000D01*
X146145000Y-160115000D02*
X146145000Y-159440000D01*
X146145000Y-160115000D02*
X145470000Y-160115000D01*
X135795000Y-149765000D02*
X135795000Y-150340000D01*
D11*
%TO.C,IC1*%
X139970000Y-65620000D02*
X130120000Y-65620000D01*
X130120000Y-65620000D02*
X129120000Y-66620000D01*
X152820000Y-65620000D02*
X141970000Y-65620000D01*
X129120000Y-89320000D02*
X152820000Y-89320000D01*
X129120000Y-66620000D02*
X129120000Y-89320000D01*
X152820000Y-89320000D02*
X152820000Y-65620000D01*
%TD*%
M02*
