%TF.GenerationSoftware,KiCad,Pcbnew,(6.0.4)*%
%TF.CreationDate,2022-05-05T12:14:13+01:00*%
%TF.ProjectId,LCC-QFP-44-to-DIL,4c43432d-5146-4502-9d34-342d746f2d44,rev?*%
%TF.SameCoordinates,Original*%
%TF.FileFunction,Copper,L1,Top*%
%TF.FilePolarity,Positive*%
%FSLAX46Y46*%
G04 Gerber Fmt 4.6, Leading zero omitted, Abs format (unit mm)*
G04 Created by KiCad (PCBNEW (6.0.4)) date 2022-05-05 12:14:13*
%MOMM*%
%LPD*%
G01*
G04 APERTURE LIST*
%TA.AperFunction,SMDPad,CuDef*%
%ADD10R,1.500000X0.520000*%
%TD*%
%TA.AperFunction,SMDPad,CuDef*%
%ADD11R,0.520000X1.500000*%
%TD*%
%TA.AperFunction,ComponentPad*%
%ADD12R,1.422400X1.422400*%
%TD*%
%TA.AperFunction,ComponentPad*%
%ADD13C,1.422400*%
%TD*%
%TA.AperFunction,ComponentPad*%
%ADD14R,1.524000X1.524000*%
%TD*%
%TA.AperFunction,ComponentPad*%
%ADD15C,1.524000*%
%TD*%
%TA.AperFunction,ViaPad*%
%ADD16C,0.800000*%
%TD*%
%TA.AperFunction,Conductor*%
%ADD17C,0.200000*%
%TD*%
G04 APERTURE END LIST*
D10*
%TO.P,IC2,1,PIN1*%
%TO.N,/PIN01*%
X134920000Y-150940000D03*
%TO.P,IC2,2,PIN2*%
%TO.N,/PIN02*%
X134920000Y-151740000D03*
%TO.P,IC2,3,PIN3*%
%TO.N,/PIN03*%
X134920000Y-152540000D03*
%TO.P,IC2,4,PIN4*%
%TO.N,/PIN04*%
X134920000Y-153340000D03*
%TO.P,IC2,5,PIN5*%
%TO.N,/PIN05*%
X134920000Y-154140000D03*
%TO.P,IC2,6,PIN6*%
%TO.N,/PIN06*%
X134920000Y-154940000D03*
%TO.P,IC2,7,PIN7*%
%TO.N,/PIN07*%
X134920000Y-155740000D03*
%TO.P,IC2,8,PIN8*%
%TO.N,/PIN08*%
X134920000Y-156540000D03*
%TO.P,IC2,9,PIN9*%
%TO.N,/PIN09*%
X134920000Y-157340000D03*
%TO.P,IC2,10,PIN10*%
%TO.N,/PIN10*%
X134920000Y-158140000D03*
%TO.P,IC2,11,PIN11*%
%TO.N,/PIN11*%
X134920000Y-158940000D03*
D11*
%TO.P,IC2,12,PIN12*%
%TO.N,/PIN12*%
X136970000Y-160990000D03*
%TO.P,IC2,13,PIN13*%
%TO.N,/PIN13*%
X137770000Y-160990000D03*
%TO.P,IC2,14,PIN14*%
%TO.N,/PIN14*%
X138570000Y-160990000D03*
%TO.P,IC2,15,PIN15*%
%TO.N,/PIN15*%
X139370000Y-160990000D03*
%TO.P,IC2,16,PIN16*%
%TO.N,/PIN16*%
X140170000Y-160990000D03*
%TO.P,IC2,17,PIN17*%
%TO.N,/PIN17*%
X140970000Y-160990000D03*
%TO.P,IC2,18,PIN18*%
%TO.N,/PIN18*%
X141770000Y-160990000D03*
%TO.P,IC2,19,PIN19*%
%TO.N,/PIN19*%
X142570000Y-160990000D03*
%TO.P,IC2,20,PIN20*%
%TO.N,/PIN20*%
X143370000Y-160990000D03*
%TO.P,IC2,21,PIN21*%
%TO.N,/PIN21*%
X144170000Y-160990000D03*
%TO.P,IC2,22,PIN22*%
%TO.N,/PIN22*%
X144970000Y-160990000D03*
D10*
%TO.P,IC2,23,PIN23*%
%TO.N,/PIN23*%
X147020000Y-158940000D03*
%TO.P,IC2,24,PIN24*%
%TO.N,/PIN24*%
X147020000Y-158140000D03*
%TO.P,IC2,25,PIN25*%
%TO.N,/PIN25*%
X147020000Y-157340000D03*
%TO.P,IC2,26,PIN26*%
%TO.N,/PIN26*%
X147020000Y-156540000D03*
%TO.P,IC2,27,PIN27*%
%TO.N,/PIN27*%
X147020000Y-155740000D03*
%TO.P,IC2,28,PIN28*%
%TO.N,/PIN28*%
X147020000Y-154940000D03*
%TO.P,IC2,29,PIN29*%
%TO.N,/PIN29*%
X147020000Y-154140000D03*
%TO.P,IC2,30,PIN30*%
%TO.N,/PIN30*%
X147020000Y-153340000D03*
%TO.P,IC2,31,PIN31*%
%TO.N,/PIN31*%
X147020000Y-152540000D03*
%TO.P,IC2,32,PIN32*%
%TO.N,/PIN32*%
X147020000Y-151740000D03*
%TO.P,IC2,33,PIN33*%
%TO.N,/PIN33*%
X147020000Y-150940000D03*
D11*
%TO.P,IC2,34,PIN34*%
%TO.N,/PIN34*%
X144970000Y-148890000D03*
%TO.P,IC2,35,PIN35*%
%TO.N,/PIN35*%
X144170000Y-148890000D03*
%TO.P,IC2,36,PIN36*%
%TO.N,/PIN36*%
X143370000Y-148890000D03*
%TO.P,IC2,37,PIN37*%
%TO.N,/PIN37*%
X142570000Y-148890000D03*
%TO.P,IC2,38,PIN38*%
%TO.N,/PIN38*%
X141770000Y-148890000D03*
%TO.P,IC2,39,PIN39*%
%TO.N,/PIN39*%
X140970000Y-148890000D03*
%TO.P,IC2,40,PIN40*%
%TO.N,/PIN40*%
X140170000Y-148890000D03*
%TO.P,IC2,41,PIN41*%
%TO.N,/PIN41*%
X139370000Y-148890000D03*
%TO.P,IC2,42,PIN42*%
%TO.N,/PIN42*%
X138570000Y-148890000D03*
%TO.P,IC2,43,PIN43*%
%TO.N,/PIN43*%
X137770000Y-148890000D03*
%TO.P,IC2,44,PIN44*%
%TO.N,/PIN44*%
X136970000Y-148890000D03*
%TD*%
D12*
%TO.P,IC1,1,PIN1*%
%TO.N,/PIN01*%
X142240000Y-71120000D03*
D13*
%TO.P,IC1,2,PIN2*%
%TO.N,/PIN02*%
X139700000Y-68580000D03*
%TO.P,IC1,3,PIN3*%
%TO.N,/PIN03*%
X139700000Y-71120000D03*
%TO.P,IC1,4,PIN4*%
%TO.N,/PIN04*%
X137160000Y-68580000D03*
%TO.P,IC1,5,PIN5*%
%TO.N,/PIN05*%
X137160000Y-71120000D03*
%TO.P,IC1,6,PIN6*%
%TO.N,/PIN06*%
X134620000Y-68580000D03*
%TO.P,IC1,7,PIN7*%
%TO.N,/PIN07*%
X132080000Y-71120000D03*
%TO.P,IC1,8,PIN8*%
%TO.N,/PIN08*%
X134620000Y-71120000D03*
%TO.P,IC1,9,PIN9*%
%TO.N,/PIN09*%
X132080000Y-73660000D03*
%TO.P,IC1,10,PIN10*%
%TO.N,/PIN10*%
X134620000Y-73660000D03*
%TO.P,IC1,11,PIN11*%
%TO.N,/PIN11*%
X132080000Y-76200000D03*
%TO.P,IC1,12,PIN12*%
%TO.N,/PIN12*%
X134620000Y-76200000D03*
%TO.P,IC1,13,PIN13*%
%TO.N,/PIN13*%
X132080000Y-78740000D03*
%TO.P,IC1,14,PIN14*%
%TO.N,/PIN14*%
X134620000Y-78740000D03*
%TO.P,IC1,15,PIN15*%
%TO.N,/PIN15*%
X132080000Y-81280000D03*
%TO.P,IC1,16,PIN16*%
%TO.N,/PIN16*%
X134620000Y-81280000D03*
%TO.P,IC1,17,PIN17*%
%TO.N,/PIN17*%
X132080000Y-83820000D03*
%TO.P,IC1,18,PIN18*%
%TO.N,/PIN18*%
X134620000Y-86360000D03*
%TO.P,IC1,19,PIN19*%
%TO.N,/PIN19*%
X134620000Y-83820000D03*
%TO.P,IC1,20,PIN20*%
%TO.N,/PIN20*%
X137160000Y-86360000D03*
%TO.P,IC1,21,PIN21*%
%TO.N,/PIN21*%
X137160000Y-83820000D03*
%TO.P,IC1,22,PIN22*%
%TO.N,/PIN22*%
X139700000Y-86360000D03*
%TO.P,IC1,23,PIN23*%
%TO.N,/PIN23*%
X139700000Y-83820000D03*
%TO.P,IC1,24,PIN24*%
%TO.N,/PIN24*%
X142240000Y-86360000D03*
%TO.P,IC1,25,PIN25*%
%TO.N,/PIN25*%
X142240000Y-83820000D03*
%TO.P,IC1,26,PIN26*%
%TO.N,/PIN26*%
X144780000Y-86360000D03*
%TO.P,IC1,27,PIN27*%
%TO.N,/PIN27*%
X144780000Y-83820000D03*
%TO.P,IC1,28,PIN28*%
%TO.N,/PIN28*%
X147320000Y-86360000D03*
%TO.P,IC1,29,PIN29*%
%TO.N,/PIN29*%
X149860000Y-83820000D03*
%TO.P,IC1,30,PIN30*%
%TO.N,/PIN30*%
X147320000Y-83820000D03*
%TO.P,IC1,31,PIN31*%
%TO.N,/PIN31*%
X149860000Y-81280000D03*
%TO.P,IC1,32,PIN32*%
%TO.N,/PIN32*%
X147320000Y-81280000D03*
%TO.P,IC1,33,PIN33*%
%TO.N,/PIN33*%
X149860000Y-78740000D03*
%TO.P,IC1,34,PIN34*%
%TO.N,/PIN34*%
X147320000Y-78740000D03*
%TO.P,IC1,35,PIN35*%
%TO.N,/PIN35*%
X149860000Y-76200000D03*
%TO.P,IC1,36,PIN36*%
%TO.N,/PIN36*%
X147320000Y-76200000D03*
%TO.P,IC1,37,PIN37*%
%TO.N,/PIN37*%
X149860000Y-73660000D03*
%TO.P,IC1,38,PIN38*%
%TO.N,/PIN38*%
X147320000Y-73660000D03*
%TO.P,IC1,39,PIN39*%
%TO.N,/PIN39*%
X149860000Y-71120000D03*
%TO.P,IC1,40,PIN40*%
%TO.N,/PIN40*%
X147320000Y-68580000D03*
%TO.P,IC1,41,PIN41*%
%TO.N,/PIN41*%
X147320000Y-71120000D03*
%TO.P,IC1,42,PIN42*%
%TO.N,/PIN42*%
X144780000Y-68580000D03*
%TO.P,IC1,43,PIN43*%
%TO.N,/PIN43*%
X144780000Y-71120000D03*
%TO.P,IC1,44,PIN44*%
%TO.N,/PIN44*%
X142240000Y-68580000D03*
%TD*%
D12*
%TO.P,J1-22,1,Pin_1*%
%TO.N,/PIN01*%
X137160000Y-92710000D03*
D13*
%TO.P,J1-22,2,Pin_2*%
%TO.N,/PIN02*%
X137160000Y-95250000D03*
%TO.P,J1-22,3,Pin_3*%
%TO.N,/PIN03*%
X137160000Y-97790000D03*
%TO.P,J1-22,4,Pin_4*%
%TO.N,/PIN04*%
X137160000Y-100330000D03*
%TO.P,J1-22,5,Pin_5*%
%TO.N,/PIN05*%
X137160000Y-102870000D03*
%TO.P,J1-22,6,Pin_6*%
%TO.N,/PIN06*%
X137160000Y-105410000D03*
%TO.P,J1-22,7,Pin_7*%
%TO.N,/PIN07*%
X137160000Y-107950000D03*
%TO.P,J1-22,8,Pin_8*%
%TO.N,/PIN08*%
X137160000Y-110490000D03*
%TO.P,J1-22,9,Pin_9*%
%TO.N,/PIN09*%
X137160000Y-113030000D03*
%TO.P,J1-22,10,Pin_10*%
%TO.N,/PIN10*%
X137160000Y-115570000D03*
%TO.P,J1-22,11,Pin_11*%
%TO.N,/PIN11*%
X137160000Y-118110000D03*
%TO.P,J1-22,12,Pin_12*%
%TO.N,/PIN12*%
X137160000Y-120650000D03*
%TO.P,J1-22,13,Pin_13*%
%TO.N,/PIN13*%
X137160000Y-123190000D03*
%TO.P,J1-22,14,Pin_14*%
%TO.N,/PIN14*%
X137160000Y-125730000D03*
%TO.P,J1-22,15,Pin_15*%
%TO.N,/PIN15*%
X137160000Y-128270000D03*
%TO.P,J1-22,16,Pin_16*%
%TO.N,/PIN16*%
X137160000Y-130810000D03*
%TO.P,J1-22,17,Pin_17*%
%TO.N,/PIN17*%
X137160000Y-133350000D03*
%TO.P,J1-22,18,Pin_18*%
%TO.N,/PIN18*%
X137160000Y-135890000D03*
%TO.P,J1-22,19,Pin_19*%
%TO.N,/PIN19*%
X137160000Y-138430000D03*
%TO.P,J1-22,20,Pin_20*%
%TO.N,/PIN20*%
X137160000Y-140970000D03*
%TO.P,J1-22,21,Pin_21*%
%TO.N,/PIN21*%
X137160000Y-143510000D03*
%TO.P,J1-22,22,Pin_22*%
%TO.N,/PIN22*%
X137160000Y-146050000D03*
%TD*%
D14*
%TO.P,J23-44,1,Pin_1*%
%TO.N,/PIN44*%
X144780000Y-92710000D03*
D15*
%TO.P,J23-44,2,Pin_2*%
%TO.N,/PIN43*%
X144780000Y-95250000D03*
%TO.P,J23-44,3,Pin_3*%
%TO.N,/PIN42*%
X144780000Y-97790000D03*
%TO.P,J23-44,4,Pin_4*%
%TO.N,/PIN41*%
X144780000Y-100330000D03*
%TO.P,J23-44,5,Pin_5*%
%TO.N,/PIN40*%
X144780000Y-102870000D03*
%TO.P,J23-44,6,Pin_6*%
%TO.N,/PIN39*%
X144780000Y-105410000D03*
%TO.P,J23-44,7,Pin_7*%
%TO.N,/PIN38*%
X144780000Y-107950000D03*
%TO.P,J23-44,8,Pin_8*%
%TO.N,/PIN37*%
X144780000Y-110490000D03*
%TO.P,J23-44,9,Pin_9*%
%TO.N,/PIN36*%
X144780000Y-113030000D03*
%TO.P,J23-44,10,Pin_10*%
%TO.N,/PIN35*%
X144780000Y-115570000D03*
%TO.P,J23-44,11,Pin_11*%
%TO.N,/PIN34*%
X144780000Y-118110000D03*
%TO.P,J23-44,12,Pin_12*%
%TO.N,/PIN33*%
X144780000Y-120650000D03*
%TO.P,J23-44,13,Pin_13*%
%TO.N,/PIN32*%
X144780000Y-123190000D03*
%TO.P,J23-44,14,Pin_14*%
%TO.N,/PIN31*%
X144780000Y-125730000D03*
%TO.P,J23-44,15,Pin_15*%
%TO.N,/PIN30*%
X144780000Y-128270000D03*
%TO.P,J23-44,16,Pin_16*%
%TO.N,/PIN29*%
X144780000Y-130810000D03*
%TO.P,J23-44,17,Pin_17*%
%TO.N,/PIN28*%
X144780000Y-133350000D03*
%TO.P,J23-44,18,Pin_18*%
%TO.N,/PIN27*%
X144780000Y-135890000D03*
%TO.P,J23-44,19,Pin_19*%
%TO.N,/PIN26*%
X144780000Y-138430000D03*
%TO.P,J23-44,20,Pin_20*%
%TO.N,/PIN25*%
X144780000Y-140970000D03*
%TO.P,J23-44,21,Pin_21*%
%TO.N,/PIN24*%
X144780000Y-143510000D03*
%TO.P,J23-44,22,Pin_22*%
%TO.N,/PIN23*%
X144780000Y-146050000D03*
%TD*%
D16*
%TO.N,/PIN01*%
X138899200Y-105453700D03*
%TO.N,/PIN02*%
X139769100Y-97744600D03*
%TO.N,/PIN04*%
X139719100Y-154777000D03*
%TO.N,/PIN05*%
X138816000Y-154073900D03*
%TO.N,/PIN06*%
X138698300Y-103871700D03*
X137234900Y-157324100D03*
%TO.N,/PIN07*%
X136293600Y-155867200D03*
%TO.N,/PIN08*%
X140282500Y-152750900D03*
%TO.N,/PIN09*%
X135135800Y-138945100D03*
%TO.N,/PIN10*%
X134794400Y-136172100D03*
X129611700Y-74697700D03*
%TO.N,/PIN11*%
X133834300Y-117887600D03*
%TO.N,/PIN12*%
X133336900Y-120090200D03*
%TO.N,/PIN13*%
X133139500Y-121615700D03*
%TO.N,/PIN14*%
X132486300Y-111989300D03*
X133303800Y-122790000D03*
%TO.N,/PIN15*%
X139370000Y-158465800D03*
%TO.N,/PIN16*%
X139780800Y-157432500D03*
%TO.N,/PIN17*%
X140820000Y-157395800D03*
%TO.N,/PIN18*%
X141520300Y-158130200D03*
%TO.N,/PIN19*%
X141119800Y-154368900D03*
%TO.N,/PIN20*%
X142127300Y-154558700D03*
%TO.N,/PIN21*%
X143112200Y-155543600D03*
X143768400Y-69589000D03*
X137160000Y-74022400D03*
%TO.N,/PIN24*%
X148381700Y-157630800D03*
%TO.N,/PIN25*%
X148391800Y-156630400D03*
%TO.N,/PIN28*%
X148398400Y-154827000D03*
%TO.N,/PIN30*%
X148378200Y-153298500D03*
%TO.N,/PIN31*%
X148504300Y-147580700D03*
%TO.N,/PIN32*%
X147879800Y-148671600D03*
%TO.N,/PIN33*%
X146050000Y-129891400D03*
X146835900Y-140629200D03*
%TD*%
D17*
%TO.N,/PIN01*%
X134920000Y-141700100D02*
X134920000Y-150940000D01*
X138899200Y-105453700D02*
X138650300Y-105702600D01*
X138650300Y-105702600D02*
X138650300Y-139064800D01*
X136746100Y-139874000D02*
X134920000Y-141700100D01*
X138650300Y-139064800D02*
X137841100Y-139874000D01*
X137841100Y-139874000D02*
X136746100Y-139874000D01*
%TO.N,/PIN02*%
X137127800Y-142456400D02*
X136760500Y-142456400D01*
X139769100Y-106514500D02*
X139050600Y-107233000D01*
X139700000Y-68580000D02*
X141163800Y-70043800D01*
X139769100Y-97744600D02*
X139769100Y-106514500D01*
X141163800Y-70043800D02*
X141163800Y-96349900D01*
X141163800Y-96349900D02*
X139769100Y-97744600D01*
X136760500Y-142456400D02*
X135970300Y-143246600D01*
X135970300Y-143246600D02*
X135970300Y-151740000D01*
X139050600Y-107233000D02*
X139050600Y-140533600D01*
X134920000Y-151740000D02*
X135970300Y-151740000D01*
X139050600Y-140533600D02*
X137127800Y-142456400D01*
%TO.N,/PIN03*%
X131661300Y-90107000D02*
X131661300Y-113526900D01*
X138430100Y-68378600D02*
X137209800Y-67158300D01*
X134947500Y-135334800D02*
X135494700Y-135882000D01*
X134920000Y-152540000D02*
X133869700Y-152540000D01*
X134032900Y-67158300D02*
X131043400Y-70147800D01*
X136082400Y-139473600D02*
X133869700Y-141686300D01*
X137160000Y-97790000D02*
X136135600Y-98814400D01*
X139700000Y-71120000D02*
X138430100Y-69850100D01*
X131043400Y-89489100D02*
X131661300Y-90107000D01*
X136952400Y-104140000D02*
X137360200Y-104140000D01*
X138430100Y-69850100D02*
X138430100Y-68378600D01*
X137584300Y-139473600D02*
X136082400Y-139473600D01*
X135494700Y-135882000D02*
X135494700Y-136305200D01*
X136135600Y-98814400D02*
X136135600Y-103323200D01*
X131661300Y-113526900D02*
X134947500Y-116813100D01*
X137360200Y-104140000D02*
X138198900Y-104978700D01*
X138198900Y-104978700D02*
X138198900Y-138859000D01*
X136082400Y-136892900D02*
X136082400Y-139473600D01*
X136135600Y-103323200D02*
X136952400Y-104140000D01*
X135494700Y-136305200D02*
X136082400Y-136892900D01*
X137209800Y-67158300D02*
X134032900Y-67158300D01*
X133869700Y-141686300D02*
X133869700Y-152540000D01*
X138198900Y-138859000D02*
X137584300Y-139473600D01*
X131043400Y-70147800D02*
X131043400Y-89489100D01*
X134947500Y-116813100D02*
X134947500Y-135334800D01*
%TO.N,/PIN04*%
X135970300Y-153340000D02*
X139090100Y-153340000D01*
X139090100Y-153340000D02*
X139719100Y-153969000D01*
X134943100Y-70012300D02*
X134609400Y-70012300D01*
X138178700Y-99311300D02*
X138178700Y-73814500D01*
X133608400Y-68149100D02*
X134198800Y-67558700D01*
X134198800Y-67558700D02*
X136138700Y-67558700D01*
X136138700Y-67558700D02*
X137160000Y-68580000D01*
X133608400Y-69011300D02*
X133608400Y-68149100D01*
X135802400Y-71438200D02*
X135802400Y-70871600D01*
X139719100Y-153969000D02*
X139719100Y-154777000D01*
X135802400Y-70871600D02*
X134943100Y-70012300D01*
X137160000Y-100330000D02*
X138178700Y-99311300D01*
X134609400Y-70012300D02*
X133608400Y-69011300D01*
X138178700Y-73814500D02*
X135802400Y-71438200D01*
X134920000Y-153340000D02*
X135970300Y-153340000D01*
%TO.N,/PIN05*%
X138614100Y-101415900D02*
X137160000Y-102870000D01*
X135970300Y-154140000D02*
X138749900Y-154140000D01*
X138749900Y-154140000D02*
X138816000Y-154073900D01*
X134920000Y-154140000D02*
X135970300Y-154140000D01*
X138614100Y-72574100D02*
X138614100Y-101415900D01*
X137160000Y-71120000D02*
X138614100Y-72574100D01*
%TO.N,/PIN06*%
X140738500Y-95784900D02*
X139068800Y-97454600D01*
X138171600Y-71497300D02*
X140738500Y-74064200D01*
X137324100Y-69850000D02*
X138171600Y-70697500D01*
X139068800Y-97454600D02*
X139068800Y-103501200D01*
X140738500Y-74064200D02*
X140738500Y-95784900D01*
X138171600Y-70697500D02*
X138171600Y-71497300D01*
X137234900Y-155817500D02*
X136357400Y-154940000D01*
X137234900Y-157324100D02*
X137234900Y-155817500D01*
X134620000Y-68580000D02*
X135890000Y-69850000D01*
X136357400Y-154940000D02*
X134920000Y-154940000D01*
X139068800Y-103501200D02*
X138698300Y-103871700D01*
X135890000Y-69850000D02*
X137324100Y-69850000D01*
%TO.N,/PIN07*%
X136293600Y-155867200D02*
X136166400Y-155740000D01*
X136166400Y-155740000D02*
X134920000Y-155740000D01*
%TO.N,/PIN08*%
X137481700Y-158069800D02*
X136977300Y-158069800D01*
X136035500Y-72535500D02*
X134620000Y-71120000D01*
X135735200Y-109065200D02*
X135735200Y-88958500D01*
X134920000Y-156540000D02*
X135970300Y-156540000D01*
X136977300Y-158069800D02*
X135970300Y-157062800D01*
X140419500Y-155132000D02*
X137481700Y-158069800D01*
X135970300Y-157062800D02*
X135970300Y-156540000D01*
X135735200Y-88958500D02*
X136035500Y-88658200D01*
X136035500Y-88658200D02*
X136035500Y-72535500D01*
X140282500Y-152750900D02*
X140419500Y-152887900D01*
X140419500Y-152887900D02*
X140419500Y-155132000D01*
X137160000Y-110490000D02*
X135735200Y-109065200D01*
%TO.N,/PIN09*%
X133469400Y-156939700D02*
X133469400Y-140611500D01*
X133469400Y-140611500D02*
X135135800Y-138945100D01*
X134920000Y-157340000D02*
X133869700Y-157340000D01*
X133869700Y-157340000D02*
X133469400Y-156939700D01*
%TO.N,/PIN10*%
X134794400Y-136172100D02*
X134547000Y-135924700D01*
X133069100Y-137897400D02*
X134794400Y-136172100D01*
X134547000Y-135924700D02*
X134547000Y-117600100D01*
X133069100Y-157339400D02*
X133069100Y-137897400D01*
X133869700Y-158140000D02*
X133069100Y-157339400D01*
X131120400Y-114173500D02*
X131120400Y-90698400D01*
X134547000Y-117600100D02*
X131120400Y-114173500D01*
X129611700Y-89189700D02*
X129611700Y-74697700D01*
X134920000Y-158140000D02*
X133869700Y-158140000D01*
X131120400Y-90698400D02*
X129611700Y-89189700D01*
%TO.N,/PIN11*%
X134065600Y-136226100D02*
X134065600Y-118118900D01*
X132668800Y-157739100D02*
X132668800Y-137622900D01*
X133869700Y-158940000D02*
X132668800Y-157739100D01*
X132668800Y-137622900D02*
X134065600Y-136226100D01*
X134920000Y-158940000D02*
X133869700Y-158940000D01*
X134065600Y-118118900D02*
X133834300Y-117887600D01*
%TO.N,/PIN12*%
X131416800Y-158297500D02*
X131416800Y-122010300D01*
X136970000Y-160990000D02*
X134109300Y-160990000D01*
X134109300Y-160990000D02*
X131416800Y-158297500D01*
X131416800Y-122010300D02*
X133336900Y-120090200D01*
%TO.N,/PIN13*%
X137770000Y-160990000D02*
X137770000Y-159939700D01*
X131817200Y-158072700D02*
X131817200Y-122938000D01*
X131817200Y-122938000D02*
X133139500Y-121615700D01*
X133684200Y-159939700D02*
X131817200Y-158072700D01*
X137770000Y-159939700D02*
X133684200Y-159939700D01*
%TO.N,/PIN14*%
X132236100Y-157903500D02*
X132236100Y-123857700D01*
X138570000Y-159939700D02*
X138169700Y-159539400D01*
X138169700Y-159539400D02*
X133872000Y-159539400D01*
X132236100Y-123857700D02*
X133303800Y-122790000D01*
X132486300Y-85387400D02*
X133350000Y-84523700D01*
X132486300Y-111989300D02*
X132486300Y-85387400D01*
X133350000Y-84523700D02*
X133350000Y-80010000D01*
X133350000Y-80010000D02*
X134620000Y-78740000D01*
X133872000Y-159539400D02*
X132236100Y-157903500D01*
X138570000Y-160990000D02*
X138570000Y-159939700D01*
%TO.N,/PIN15*%
X139370000Y-160990000D02*
X139370000Y-158465800D01*
%TO.N,/PIN16*%
X135293600Y-88551000D02*
X135635200Y-88209400D01*
X136148500Y-113021200D02*
X135293600Y-112166300D01*
X135635200Y-82295200D02*
X134620000Y-81280000D01*
X135293600Y-112166300D02*
X135293600Y-88551000D01*
X135635200Y-88209400D02*
X135635200Y-82295200D01*
X137160000Y-130810000D02*
X136148500Y-129798500D01*
X136148500Y-129798500D02*
X136148500Y-113021200D01*
X139780800Y-157432500D02*
X140170000Y-157821700D01*
X140170000Y-157821700D02*
X140170000Y-160990000D01*
%TO.N,/PIN17*%
X140820000Y-159789700D02*
X140970000Y-159939700D01*
X140970000Y-160990000D02*
X140970000Y-159939700D01*
X140820000Y-157395800D02*
X140820000Y-159789700D01*
%TO.N,/PIN18*%
X134620000Y-113989100D02*
X135748200Y-115117300D01*
X134620000Y-86360000D02*
X134620000Y-113989100D01*
X141770000Y-158379900D02*
X141520300Y-158130200D01*
X141770000Y-160990000D02*
X141770000Y-158379900D01*
X135748200Y-115117300D02*
X135748200Y-134478200D01*
X135748200Y-134478200D02*
X137160000Y-135890000D01*
%TO.N,/PIN19*%
X137160000Y-137404400D02*
X135895000Y-136139400D01*
X135347800Y-116647300D02*
X133603000Y-114902500D01*
X142220600Y-156245500D02*
X141119800Y-155144700D01*
X135347800Y-135169000D02*
X135347800Y-116647300D01*
X137160000Y-138430000D02*
X137160000Y-137404400D01*
X133603000Y-114902500D02*
X133603000Y-84837000D01*
X142220600Y-159590300D02*
X142220600Y-156245500D01*
X133603000Y-84837000D02*
X134620000Y-83820000D01*
X141119800Y-155144700D02*
X141119800Y-154368900D01*
X135895000Y-136139400D02*
X135895000Y-135716200D01*
X142570000Y-159939700D02*
X142220600Y-159590300D01*
X135895000Y-135716200D02*
X135347800Y-135169000D01*
X142570000Y-160990000D02*
X142570000Y-159939700D01*
%TO.N,/PIN20*%
X142620900Y-159190600D02*
X142620900Y-156079700D01*
X143370000Y-160990000D02*
X143370000Y-159939700D01*
X142620900Y-156079700D02*
X142127300Y-155586100D01*
X142127300Y-155586100D02*
X142127300Y-154558700D01*
X143370000Y-159939700D02*
X142620900Y-159190600D01*
%TO.N,/PIN21*%
X147737900Y-67557800D02*
X144349800Y-67557800D01*
X144170000Y-160990000D02*
X144170000Y-162040300D01*
X144349800Y-67557800D02*
X143768400Y-68139200D01*
X144170000Y-160990000D02*
X144170000Y-159705900D01*
X144170000Y-159705900D02*
X143112200Y-158648100D01*
X146600900Y-162040300D02*
X150819600Y-157821600D01*
X150819600Y-157821600D02*
X150819600Y-91265300D01*
X143768400Y-68139200D02*
X143768400Y-69589000D01*
X143112200Y-158648100D02*
X143112200Y-155543600D01*
X152167900Y-89917000D02*
X152167900Y-71987800D01*
X152167900Y-71987800D02*
X147737900Y-67557800D01*
X144170000Y-162040300D02*
X146600900Y-162040300D01*
X137160000Y-83820000D02*
X137160000Y-74022400D01*
X150819600Y-91265300D02*
X152167900Y-89917000D01*
%TO.N,/PIN22*%
X137160000Y-146050000D02*
X136409600Y-146800400D01*
X136409600Y-149797800D02*
X138038200Y-151426400D01*
X138038200Y-151426400D02*
X139996900Y-151426400D01*
X136409600Y-146800400D02*
X136409600Y-149797800D01*
X143951900Y-158921600D02*
X144970000Y-159939700D01*
X139996900Y-151426400D02*
X143951900Y-155381400D01*
X143951900Y-155381400D02*
X143951900Y-158921600D01*
X144970000Y-160990000D02*
X144970000Y-159939700D01*
%TO.N,/PIN23*%
X145554300Y-146824300D02*
X144780000Y-146050000D01*
X147020000Y-158940000D02*
X145969700Y-158940000D01*
X145969700Y-158940000D02*
X145554300Y-158524600D01*
X145554300Y-158524600D02*
X145554300Y-146824300D01*
%TO.N,/PIN24*%
X148381700Y-157828600D02*
X148381700Y-157630800D01*
X148070300Y-158140000D02*
X148381700Y-157828600D01*
X147020000Y-158140000D02*
X148070300Y-158140000D01*
%TO.N,/PIN25*%
X147682200Y-157340000D02*
X147020000Y-157340000D01*
X148391800Y-156630400D02*
X147682200Y-157340000D01*
%TO.N,/PIN26*%
X144780000Y-138430000D02*
X145969700Y-139619700D01*
X145969700Y-139619700D02*
X145969700Y-156540000D01*
X147020000Y-156540000D02*
X145969700Y-156540000D01*
%TO.N,/PIN27*%
X149616900Y-154670600D02*
X149616900Y-140726900D01*
X148070300Y-155740000D02*
X148547500Y-155740000D01*
X148547500Y-155740000D02*
X149616900Y-154670600D01*
X149616900Y-140726900D02*
X144780000Y-135890000D01*
X147020000Y-155740000D02*
X148070300Y-155740000D01*
%TO.N,/PIN28*%
X148398400Y-154827000D02*
X148183300Y-154827000D01*
X148183300Y-154827000D02*
X148070300Y-154940000D01*
X147020000Y-154940000D02*
X148070300Y-154940000D01*
%TO.N,/PIN29*%
X145026000Y-137160000D02*
X149216500Y-141350500D01*
X144473500Y-137160000D02*
X145026000Y-137160000D01*
X147020000Y-154140000D02*
X148070300Y-154140000D01*
X149860000Y-88616200D02*
X148961100Y-89515100D01*
X149216500Y-153544900D02*
X148688600Y-154072800D01*
X144780000Y-130077400D02*
X144780000Y-130810000D01*
X148961100Y-125896300D02*
X144780000Y-130077400D01*
X149216500Y-141350500D02*
X149216500Y-153544900D01*
X148688600Y-154072800D02*
X148137500Y-154072800D01*
X143704300Y-131885700D02*
X143704300Y-136390800D01*
X148137500Y-154072800D02*
X148070300Y-154140000D01*
X143704300Y-136390800D02*
X144473500Y-137160000D01*
X149860000Y-83820000D02*
X149860000Y-88616200D01*
X148961100Y-89515100D02*
X148961100Y-125896300D01*
X144780000Y-130810000D02*
X143704300Y-131885700D01*
%TO.N,/PIN30*%
X144510800Y-119380000D02*
X145020700Y-119380000D01*
X144780000Y-128270000D02*
X143704300Y-127194300D01*
X148360700Y-88270700D02*
X148360700Y-84860700D01*
X143704300Y-120186500D02*
X144510800Y-119380000D01*
X148360700Y-84860700D02*
X147320000Y-83820000D01*
X147092800Y-117307900D02*
X147092800Y-89538600D01*
X147020000Y-153340000D02*
X148070300Y-153340000D01*
X148070300Y-153340000D02*
X148111700Y-153298600D01*
X145020700Y-119380000D02*
X147092800Y-117307900D01*
X148111700Y-153298600D02*
X148378200Y-153298600D01*
X148378200Y-153298600D02*
X148378200Y-153298500D01*
X143704300Y-127194300D02*
X143704300Y-120186500D01*
X147092800Y-89538600D02*
X148360700Y-88270700D01*
%TO.N,/PIN31*%
X147020000Y-152540000D02*
X148070300Y-152540000D01*
X148580100Y-152030200D02*
X148580100Y-147656500D01*
X148070300Y-152540000D02*
X148580100Y-152030200D01*
X148580100Y-147656500D02*
X148504300Y-147580700D01*
%TO.N,/PIN32*%
X147020000Y-151740000D02*
X148070300Y-151740000D01*
X148761200Y-89148900D02*
X148761200Y-82721200D01*
X148526500Y-119443500D02*
X148526500Y-89383600D01*
X147879800Y-148671600D02*
X148070300Y-148862100D01*
X148070300Y-148862100D02*
X148070300Y-151740000D01*
X144780000Y-123190000D02*
X148526500Y-119443500D01*
X148761200Y-82721200D02*
X147320000Y-81280000D01*
X148526500Y-89383600D02*
X148761200Y-89148900D01*
%TO.N,/PIN33*%
X150903200Y-79783200D02*
X149860000Y-78740000D01*
X147020000Y-150940000D02*
X146835900Y-150755900D01*
X149561600Y-89732200D02*
X150903200Y-88390600D01*
X146050000Y-129891400D02*
X149561600Y-126379800D01*
X150903200Y-88390600D02*
X150903200Y-79783200D01*
X146835900Y-150755900D02*
X146835900Y-140629200D01*
X149561600Y-126379800D02*
X149561600Y-89732200D01*
%TO.N,/PIN34*%
X147320000Y-78740000D02*
X146292100Y-79767900D01*
X146292100Y-79767900D02*
X146292100Y-87698700D01*
X146692400Y-116197600D02*
X144780000Y-118110000D01*
X146692400Y-88099000D02*
X146692400Y-116197600D01*
X143303900Y-119586100D02*
X144780000Y-118110000D01*
X143303900Y-146173600D02*
X143303900Y-119586100D01*
X146292100Y-87698700D02*
X146692400Y-88099000D01*
X144970000Y-148890000D02*
X144970000Y-147839700D01*
X144970000Y-147839700D02*
X143303900Y-146173600D01*
%TO.N,/PIN35*%
X142853700Y-117496300D02*
X142853700Y-146289700D01*
X144780000Y-115570000D02*
X142853700Y-117496300D01*
X144170000Y-147606000D02*
X144170000Y-148890000D01*
X142853700Y-146289700D02*
X144170000Y-147606000D01*
%TO.N,/PIN36*%
X144780000Y-113030000D02*
X142453300Y-115356700D01*
X143370000Y-148890000D02*
X143370000Y-147839700D01*
X142453300Y-115356700D02*
X142453300Y-146923000D01*
X142453300Y-146923000D02*
X143370000Y-147839700D01*
%TO.N,/PIN37*%
X144780000Y-110490000D02*
X142053000Y-113217000D01*
X142053000Y-113217000D02*
X142053000Y-147322700D01*
X142570000Y-148890000D02*
X142570000Y-147839700D01*
X142053000Y-147322700D02*
X142570000Y-147839700D01*
%TO.N,/PIN38*%
X148380900Y-72599100D02*
X150233100Y-72599100D01*
X145153900Y-154380900D02*
X141770000Y-150997000D01*
X150233100Y-72599100D02*
X151303600Y-73669600D01*
X151303600Y-89232500D02*
X150018800Y-90517300D01*
X150018800Y-90517300D02*
X150018800Y-157435700D01*
X141652700Y-147722400D02*
X141770000Y-147839700D01*
X151303600Y-73669600D02*
X151303600Y-89232500D01*
X144780000Y-107950000D02*
X141652700Y-111077300D01*
X145896600Y-159500400D02*
X145153900Y-158757700D01*
X147954100Y-159500400D02*
X145896600Y-159500400D01*
X141770000Y-148890000D02*
X141770000Y-147839700D01*
X141652700Y-111077300D02*
X141652700Y-147722400D01*
X141770000Y-150997000D02*
X141770000Y-148890000D01*
X147320000Y-73660000D02*
X148380900Y-72599100D01*
X145153900Y-158757700D02*
X145153900Y-154380900D01*
X150018800Y-157435700D02*
X147954100Y-159500400D01*
%TO.N,/PIN39*%
X144780000Y-106447500D02*
X141149800Y-110077700D01*
X141149800Y-110077700D02*
X141149800Y-147659900D01*
X141149800Y-147659900D02*
X140970000Y-147839700D01*
X140970000Y-148890000D02*
X140970000Y-147839700D01*
X144780000Y-105410000D02*
X144780000Y-106447500D01*
%TO.N,/PIN40*%
X140651800Y-109595600D02*
X140651800Y-145988800D01*
X140651800Y-145988800D02*
X140170000Y-146470600D01*
X142054800Y-105595200D02*
X142054800Y-108192600D01*
X142054800Y-108192600D02*
X140651800Y-109595600D01*
X140170000Y-146470600D02*
X140170000Y-148890000D01*
X144780000Y-102870000D02*
X142054800Y-105595200D01*
%TO.N,/PIN41*%
X144780000Y-100330000D02*
X141569100Y-103540900D01*
X141569100Y-103540900D02*
X141569100Y-108112200D01*
X140251500Y-145822800D02*
X139370000Y-146704300D01*
X141569100Y-108112200D02*
X140251500Y-109429800D01*
X140251500Y-109429800D02*
X140251500Y-145822800D01*
X139370000Y-146704300D02*
X139370000Y-148890000D01*
%TO.N,/PIN42*%
X150419200Y-90691000D02*
X150419200Y-157655700D01*
X145891700Y-72165100D02*
X150365400Y-72165100D01*
X151704000Y-73503700D02*
X151704000Y-89406200D01*
X151704000Y-89406200D02*
X150419200Y-90691000D01*
X138570000Y-148890000D02*
X138570000Y-149940300D01*
X139138100Y-149940300D02*
X138570000Y-149940300D01*
X145891700Y-69691700D02*
X145891700Y-72165100D01*
X144753500Y-155555700D02*
X139138100Y-149940300D01*
X145891700Y-88400000D02*
X146292000Y-88800300D01*
X145744800Y-159927400D02*
X144753500Y-158936100D01*
X144753500Y-158936100D02*
X144753500Y-155555700D01*
X146292000Y-88800300D02*
X146292000Y-96278000D01*
X150419200Y-157655700D02*
X148147500Y-159927400D01*
X144780000Y-68580000D02*
X145891700Y-69691700D01*
X146292000Y-96278000D02*
X144780000Y-97790000D01*
X145891700Y-72165100D02*
X145891700Y-88400000D01*
X148147500Y-159927400D02*
X145744800Y-159927400D01*
X150365400Y-72165100D02*
X151704000Y-73503700D01*
%TO.N,/PIN44*%
X143317400Y-90185100D02*
X144780000Y-91647700D01*
X144647200Y-93772300D02*
X140602300Y-97817200D01*
X142240000Y-69050900D02*
X143317400Y-70128300D01*
X139450900Y-145208200D02*
X136970000Y-147689100D01*
X142240000Y-68580000D02*
X142240000Y-69050900D01*
X140602300Y-107380700D02*
X139450900Y-108532100D01*
X144780000Y-92710000D02*
X144780000Y-93772300D01*
X144780000Y-92710000D02*
X144780000Y-91647700D01*
X139450900Y-108532100D02*
X139450900Y-145208200D01*
X144780000Y-93772300D02*
X144647200Y-93772300D01*
X136970000Y-147689100D02*
X136970000Y-148890000D01*
X140602300Y-97817200D02*
X140602300Y-107380700D01*
X143317400Y-70128300D02*
X143317400Y-90185100D01*
%TO.N,/PIN43*%
X143717800Y-88574100D02*
X145842300Y-90698600D01*
X141027500Y-99002500D02*
X141027500Y-108087700D01*
X145842300Y-94187700D02*
X144780000Y-95250000D01*
X145842300Y-90698600D02*
X145842300Y-94187700D01*
X139851200Y-109264000D02*
X139851200Y-145606000D01*
X144780000Y-95250000D02*
X141027500Y-99002500D01*
X139851200Y-145606000D02*
X137770000Y-147687200D01*
X137770000Y-147687200D02*
X137770000Y-148890000D01*
X141027500Y-108087700D02*
X139851200Y-109264000D01*
X144780000Y-71120000D02*
X143717800Y-72182200D01*
X143717800Y-72182200D02*
X143717800Y-88574100D01*
%TD*%
M02*
