%TF.GenerationSoftware,KiCad,Pcbnew,(6.0.4)*%
%TF.CreationDate,2022-05-05T12:14:13+01:00*%
%TF.ProjectId,LCC-QFP-44-to-DIL,4c43432d-5146-4502-9d34-342d746f2d44,rev?*%
%TF.SameCoordinates,Original*%
%TF.FileFunction,Paste,Top*%
%TF.FilePolarity,Positive*%
%FSLAX46Y46*%
G04 Gerber Fmt 4.6, Leading zero omitted, Abs format (unit mm)*
G04 Created by KiCad (PCBNEW (6.0.4)) date 2022-05-05 12:14:13*
%MOMM*%
%LPD*%
G01*
G04 APERTURE LIST*
%ADD10R,1.500000X0.520000*%
%ADD11R,0.520000X1.500000*%
G04 APERTURE END LIST*
D10*
%TO.C,IC2*%
X134920000Y-150940000D03*
X134920000Y-151740000D03*
X134920000Y-152540000D03*
X134920000Y-153340000D03*
X134920000Y-154140000D03*
X134920000Y-154940000D03*
X134920000Y-155740000D03*
X134920000Y-156540000D03*
X134920000Y-157340000D03*
X134920000Y-158140000D03*
X134920000Y-158940000D03*
D11*
X136970000Y-160990000D03*
X137770000Y-160990000D03*
X138570000Y-160990000D03*
X139370000Y-160990000D03*
X140170000Y-160990000D03*
X140970000Y-160990000D03*
X141770000Y-160990000D03*
X142570000Y-160990000D03*
X143370000Y-160990000D03*
X144170000Y-160990000D03*
X144970000Y-160990000D03*
D10*
X147020000Y-158940000D03*
X147020000Y-158140000D03*
X147020000Y-157340000D03*
X147020000Y-156540000D03*
X147020000Y-155740000D03*
X147020000Y-154940000D03*
X147020000Y-154140000D03*
X147020000Y-153340000D03*
X147020000Y-152540000D03*
X147020000Y-151740000D03*
X147020000Y-150940000D03*
D11*
X144970000Y-148890000D03*
X144170000Y-148890000D03*
X143370000Y-148890000D03*
X142570000Y-148890000D03*
X141770000Y-148890000D03*
X140970000Y-148890000D03*
X140170000Y-148890000D03*
X139370000Y-148890000D03*
X138570000Y-148890000D03*
X137770000Y-148890000D03*
X136970000Y-148890000D03*
%TD*%
M02*
