%TF.GenerationSoftware,KiCad,Pcbnew,(6.0.4)*%
%TF.CreationDate,2022-05-05T12:14:13+01:00*%
%TF.ProjectId,LCC-QFP-44-to-DIL,4c43432d-5146-4502-9d34-342d746f2d44,rev?*%
%TF.SameCoordinates,Original*%
%TF.FileFunction,Soldermask,Bot*%
%TF.FilePolarity,Negative*%
%FSLAX46Y46*%
G04 Gerber Fmt 4.6, Leading zero omitted, Abs format (unit mm)*
G04 Created by KiCad (PCBNEW (6.0.4)) date 2022-05-05 12:14:13*
%MOMM*%
%LPD*%
G01*
G04 APERTURE LIST*
%ADD10R,1.422400X1.422400*%
%ADD11C,1.422400*%
%ADD12R,1.524000X1.524000*%
%ADD13C,1.524000*%
G04 APERTURE END LIST*
D10*
%TO.C,IC1*%
X142240000Y-71120000D03*
D11*
X139700000Y-68580000D03*
X139700000Y-71120000D03*
X137160000Y-68580000D03*
X137160000Y-71120000D03*
X134620000Y-68580000D03*
X132080000Y-71120000D03*
X134620000Y-71120000D03*
X132080000Y-73660000D03*
X134620000Y-73660000D03*
X132080000Y-76200000D03*
X134620000Y-76200000D03*
X132080000Y-78740000D03*
X134620000Y-78740000D03*
X132080000Y-81280000D03*
X134620000Y-81280000D03*
X132080000Y-83820000D03*
X134620000Y-86360000D03*
X134620000Y-83820000D03*
X137160000Y-86360000D03*
X137160000Y-83820000D03*
X139700000Y-86360000D03*
X139700000Y-83820000D03*
X142240000Y-86360000D03*
X142240000Y-83820000D03*
X144780000Y-86360000D03*
X144780000Y-83820000D03*
X147320000Y-86360000D03*
X149860000Y-83820000D03*
X147320000Y-83820000D03*
X149860000Y-81280000D03*
X147320000Y-81280000D03*
X149860000Y-78740000D03*
X147320000Y-78740000D03*
X149860000Y-76200000D03*
X147320000Y-76200000D03*
X149860000Y-73660000D03*
X147320000Y-73660000D03*
X149860000Y-71120000D03*
X147320000Y-68580000D03*
X147320000Y-71120000D03*
X144780000Y-68580000D03*
X144780000Y-71120000D03*
X142240000Y-68580000D03*
%TD*%
D10*
%TO.C,J1-22*%
X137160000Y-92710000D03*
D11*
X137160000Y-95250000D03*
X137160000Y-97790000D03*
X137160000Y-100330000D03*
X137160000Y-102870000D03*
X137160000Y-105410000D03*
X137160000Y-107950000D03*
X137160000Y-110490000D03*
X137160000Y-113030000D03*
X137160000Y-115570000D03*
X137160000Y-118110000D03*
X137160000Y-120650000D03*
X137160000Y-123190000D03*
X137160000Y-125730000D03*
X137160000Y-128270000D03*
X137160000Y-130810000D03*
X137160000Y-133350000D03*
X137160000Y-135890000D03*
X137160000Y-138430000D03*
X137160000Y-140970000D03*
X137160000Y-143510000D03*
X137160000Y-146050000D03*
%TD*%
D12*
%TO.C,J23-44*%
X144780000Y-92710000D03*
D13*
X144780000Y-95250000D03*
X144780000Y-97790000D03*
X144780000Y-100330000D03*
X144780000Y-102870000D03*
X144780000Y-105410000D03*
X144780000Y-107950000D03*
X144780000Y-110490000D03*
X144780000Y-113030000D03*
X144780000Y-115570000D03*
X144780000Y-118110000D03*
X144780000Y-120650000D03*
X144780000Y-123190000D03*
X144780000Y-125730000D03*
X144780000Y-128270000D03*
X144780000Y-130810000D03*
X144780000Y-133350000D03*
X144780000Y-135890000D03*
X144780000Y-138430000D03*
X144780000Y-140970000D03*
X144780000Y-143510000D03*
X144780000Y-146050000D03*
%TD*%
M02*
