%TF.GenerationSoftware,KiCad,Pcbnew,(6.0.4)*%
%TF.CreationDate,2022-05-05T12:14:13+01:00*%
%TF.ProjectId,LCC-QFP-44-to-DIL,4c43432d-5146-4502-9d34-342d746f2d44,rev?*%
%TF.SameCoordinates,Original*%
%TF.FileFunction,Legend,Bot*%
%TF.FilePolarity,Positive*%
%FSLAX46Y46*%
G04 Gerber Fmt 4.6, Leading zero omitted, Abs format (unit mm)*
G04 Created by KiCad (PCBNEW (6.0.4)) date 2022-05-05 12:14:13*
%MOMM*%
%LPD*%
G01*
G04 APERTURE LIST*
%ADD10C,0.150000*%
%ADD11C,0.120000*%
G04 APERTURE END LIST*
D10*
X140350952Y-89030952D02*
X140255714Y-88840476D01*
X140255714Y-88459523D01*
X140350952Y-88269047D01*
X140541428Y-88078571D01*
X140731904Y-87983333D01*
X141112857Y-87983333D01*
X141303333Y-88078571D01*
X141493809Y-88269047D01*
X141589047Y-88459523D01*
X141589047Y-88840476D01*
X141493809Y-89030952D01*
X139589047Y-88650000D02*
X139684285Y-88173809D01*
X139970000Y-87697619D01*
X140446190Y-87411904D01*
X140922380Y-87316666D01*
X141398571Y-87411904D01*
X141874761Y-87697619D01*
X142160476Y-88173809D01*
X142255714Y-88650000D01*
X142160476Y-89126190D01*
X141874761Y-89602380D01*
X141398571Y-89888095D01*
X140922380Y-89983333D01*
X140446190Y-89888095D01*
X139970000Y-89602380D01*
X139684285Y-89126190D01*
X139589047Y-88650000D01*
X139874761Y-91411904D02*
X141303333Y-91411904D01*
X141589047Y-91316666D01*
X141779523Y-91126190D01*
X141874761Y-90840476D01*
X141874761Y-90650000D01*
X141874761Y-92650000D02*
X141779523Y-92459523D01*
X141684285Y-92364285D01*
X141493809Y-92269047D01*
X140922380Y-92269047D01*
X140731904Y-92364285D01*
X140636666Y-92459523D01*
X140541428Y-92650000D01*
X140541428Y-92935714D01*
X140636666Y-93126190D01*
X140731904Y-93221428D01*
X140922380Y-93316666D01*
X141493809Y-93316666D01*
X141684285Y-93221428D01*
X141779523Y-93126190D01*
X141874761Y-92935714D01*
X141874761Y-92650000D01*
X141874761Y-94173809D02*
X139874761Y-94173809D01*
X141874761Y-95030952D02*
X140827142Y-95030952D01*
X140636666Y-94935714D01*
X140541428Y-94745238D01*
X140541428Y-94459523D01*
X140636666Y-94269047D01*
X140731904Y-94173809D01*
X140541428Y-95983333D02*
X141874761Y-95983333D01*
X140731904Y-95983333D02*
X140636666Y-96078571D01*
X140541428Y-96269047D01*
X140541428Y-96554761D01*
X140636666Y-96745238D01*
X140827142Y-96840476D01*
X141874761Y-96840476D01*
X140827142Y-99983333D02*
X140922380Y-100269047D01*
X141017619Y-100364285D01*
X141208095Y-100459523D01*
X141493809Y-100459523D01*
X141684285Y-100364285D01*
X141779523Y-100269047D01*
X141874761Y-100078571D01*
X141874761Y-99316666D01*
X139874761Y-99316666D01*
X139874761Y-99983333D01*
X139970000Y-100173809D01*
X140065238Y-100269047D01*
X140255714Y-100364285D01*
X140446190Y-100364285D01*
X140636666Y-100269047D01*
X140731904Y-100173809D01*
X140827142Y-99983333D01*
X140827142Y-99316666D01*
X141874761Y-101316666D02*
X140541428Y-101316666D01*
X140922380Y-101316666D02*
X140731904Y-101411904D01*
X140636666Y-101507142D01*
X140541428Y-101697619D01*
X140541428Y-101888095D01*
X141874761Y-103411904D02*
X140827142Y-103411904D01*
X140636666Y-103316666D01*
X140541428Y-103126190D01*
X140541428Y-102745238D01*
X140636666Y-102554761D01*
X141779523Y-103411904D02*
X141874761Y-103221428D01*
X141874761Y-102745238D01*
X141779523Y-102554761D01*
X141589047Y-102459523D01*
X141398571Y-102459523D01*
X141208095Y-102554761D01*
X141112857Y-102745238D01*
X141112857Y-103221428D01*
X141017619Y-103411904D01*
X141874761Y-105221428D02*
X139874761Y-105221428D01*
X141779523Y-105221428D02*
X141874761Y-105030952D01*
X141874761Y-104649999D01*
X141779523Y-104459523D01*
X141684285Y-104364285D01*
X141493809Y-104269047D01*
X140922380Y-104269047D01*
X140731904Y-104364285D01*
X140636666Y-104459523D01*
X140541428Y-104649999D01*
X140541428Y-105030952D01*
X140636666Y-105221428D01*
X141874761Y-106459523D02*
X141779523Y-106269047D01*
X141589047Y-106173809D01*
X139874761Y-106173809D01*
X141779523Y-107983333D02*
X141874761Y-107792857D01*
X141874761Y-107411904D01*
X141779523Y-107221428D01*
X141589047Y-107126190D01*
X140827142Y-107126190D01*
X140636666Y-107221428D01*
X140541428Y-107411904D01*
X140541428Y-107792857D01*
X140636666Y-107983333D01*
X140827142Y-108078571D01*
X141017619Y-108078571D01*
X141208095Y-107126190D01*
X140541428Y-108745238D02*
X141874761Y-109221428D01*
X140541428Y-109697619D02*
X141874761Y-109221428D01*
X142350952Y-109030952D01*
X142446190Y-108935714D01*
X142541428Y-108745238D01*
X140065238Y-111888095D02*
X139970000Y-111983333D01*
X139874761Y-112173809D01*
X139874761Y-112649999D01*
X139970000Y-112840476D01*
X140065238Y-112935714D01*
X140255714Y-113030952D01*
X140446190Y-113030952D01*
X140731904Y-112935714D01*
X141874761Y-111792857D01*
X141874761Y-113030952D01*
X139874761Y-114269047D02*
X139874761Y-114459523D01*
X139970000Y-114649999D01*
X140065238Y-114745238D01*
X140255714Y-114840476D01*
X140636666Y-114935714D01*
X141112857Y-114935714D01*
X141493809Y-114840476D01*
X141684285Y-114745238D01*
X141779523Y-114649999D01*
X141874761Y-114459523D01*
X141874761Y-114269047D01*
X141779523Y-114078571D01*
X141684285Y-113983333D01*
X141493809Y-113888095D01*
X141112857Y-113792857D01*
X140636666Y-113792857D01*
X140255714Y-113888095D01*
X140065238Y-113983333D01*
X139970000Y-114078571D01*
X139874761Y-114269047D01*
X140065238Y-115697619D02*
X139970000Y-115792857D01*
X139874761Y-115983333D01*
X139874761Y-116459523D01*
X139970000Y-116649999D01*
X140065238Y-116745238D01*
X140255714Y-116840476D01*
X140446190Y-116840476D01*
X140731904Y-116745238D01*
X141874761Y-115602380D01*
X141874761Y-116840476D01*
X140065238Y-117602380D02*
X139970000Y-117697619D01*
X139874761Y-117888095D01*
X139874761Y-118364285D01*
X139970000Y-118554761D01*
X140065238Y-118649999D01*
X140255714Y-118745238D01*
X140446190Y-118745238D01*
X140731904Y-118649999D01*
X141874761Y-117507142D01*
X141874761Y-118745238D01*
X140541428Y-121983333D02*
X141874761Y-121983333D01*
X139779523Y-121507142D02*
X141208095Y-121030952D01*
X141208095Y-122269047D01*
X140541428Y-123888095D02*
X141874761Y-123888095D01*
X139779523Y-123411904D02*
X141208095Y-122935714D01*
X141208095Y-124173809D01*
X140541428Y-126459523D02*
X142541428Y-126459523D01*
X140636666Y-126459523D02*
X140541428Y-126649999D01*
X140541428Y-127030952D01*
X140636666Y-127221428D01*
X140731904Y-127316666D01*
X140922380Y-127411904D01*
X141493809Y-127411904D01*
X141684285Y-127316666D01*
X141779523Y-127221428D01*
X141874761Y-127030952D01*
X141874761Y-126649999D01*
X141779523Y-126459523D01*
X141874761Y-128269047D02*
X140541428Y-128269047D01*
X139874761Y-128269047D02*
X139970000Y-128173809D01*
X140065238Y-128269047D01*
X139970000Y-128364285D01*
X139874761Y-128269047D01*
X140065238Y-128269047D01*
X140541428Y-129221428D02*
X141874761Y-129221428D01*
X140731904Y-129221428D02*
X140636666Y-129316666D01*
X140541428Y-129507142D01*
X140541428Y-129792857D01*
X140636666Y-129983333D01*
X140827142Y-130078571D01*
X141874761Y-130078571D01*
X141874761Y-132554761D02*
X139874761Y-132554761D01*
X139874761Y-133030952D01*
X139970000Y-133316666D01*
X140160476Y-133507142D01*
X140350952Y-133602380D01*
X140731904Y-133697619D01*
X141017619Y-133697619D01*
X141398571Y-133602380D01*
X141589047Y-133507142D01*
X141779523Y-133316666D01*
X141874761Y-133030952D01*
X141874761Y-132554761D01*
X141874761Y-134554761D02*
X139874761Y-134554761D01*
X141874761Y-136459523D02*
X141874761Y-135507142D01*
X139874761Y-135507142D01*
X141874761Y-138649999D02*
X140541428Y-138649999D01*
X140731904Y-138649999D02*
X140636666Y-138745238D01*
X140541428Y-138935714D01*
X140541428Y-139221428D01*
X140636666Y-139411904D01*
X140827142Y-139507142D01*
X141874761Y-139507142D01*
X140827142Y-139507142D02*
X140636666Y-139602380D01*
X140541428Y-139792857D01*
X140541428Y-140078571D01*
X140636666Y-140269047D01*
X140827142Y-140364285D01*
X141874761Y-140364285D01*
X140541428Y-142173809D02*
X141874761Y-142173809D01*
X140541428Y-141316666D02*
X141589047Y-141316666D01*
X141779523Y-141411904D01*
X141874761Y-141602380D01*
X141874761Y-141888095D01*
X141779523Y-142078571D01*
X141684285Y-142173809D01*
X140541428Y-143126190D02*
X141874761Y-143126190D01*
X140731904Y-143126190D02*
X140636666Y-143221428D01*
X140541428Y-143411904D01*
X140541428Y-143697619D01*
X140636666Y-143888095D01*
X140827142Y-143983333D01*
X141874761Y-143983333D01*
X140541428Y-145792857D02*
X142160476Y-145792857D01*
X142350952Y-145697619D01*
X142446190Y-145602380D01*
X142541428Y-145411904D01*
X142541428Y-145126190D01*
X142446190Y-144935714D01*
X141779523Y-145792857D02*
X141874761Y-145602380D01*
X141874761Y-145221428D01*
X141779523Y-145030952D01*
X141684285Y-144935714D01*
X141493809Y-144840476D01*
X140922380Y-144840476D01*
X140731904Y-144935714D01*
X140636666Y-145030952D01*
X140541428Y-145221428D01*
X140541428Y-145602380D01*
X140636666Y-145792857D01*
X141779523Y-147507142D02*
X141874761Y-147316666D01*
X141874761Y-146935714D01*
X141779523Y-146745238D01*
X141589047Y-146649999D01*
X140827142Y-146649999D01*
X140636666Y-146745238D01*
X140541428Y-146935714D01*
X140541428Y-147316666D01*
X140636666Y-147507142D01*
X140827142Y-147602380D01*
X141017619Y-147602380D01*
X141208095Y-146649999D01*
X141874761Y-148459523D02*
X140541428Y-148459523D01*
X140922380Y-148459523D02*
X140731904Y-148554761D01*
X140636666Y-148649999D01*
X140541428Y-148840476D01*
X140541428Y-149030952D01*
X139874761Y-150935714D02*
X141874761Y-151602380D01*
X139874761Y-152269047D01*
X140065238Y-152840476D02*
X139970000Y-152935714D01*
X139874761Y-153126190D01*
X139874761Y-153602380D01*
X139970000Y-153792857D01*
X140065238Y-153888095D01*
X140255714Y-153983333D01*
X140446190Y-153983333D01*
X140731904Y-153888095D01*
X141874761Y-152745238D01*
X141874761Y-153983333D01*
%TO.C,J1-22*%
X139064761Y-89832380D02*
X139064761Y-90546666D01*
X139112380Y-90689523D01*
X139207619Y-90784761D01*
X139350476Y-90832380D01*
X139445714Y-90832380D01*
X138064761Y-90832380D02*
X138636190Y-90832380D01*
X138350476Y-90832380D02*
X138350476Y-89832380D01*
X138445714Y-89975238D01*
X138540952Y-90070476D01*
X138636190Y-90118095D01*
X137636190Y-90451428D02*
X136874285Y-90451428D01*
X136445714Y-89927619D02*
X136398095Y-89880000D01*
X136302857Y-89832380D01*
X136064761Y-89832380D01*
X135969523Y-89880000D01*
X135921904Y-89927619D01*
X135874285Y-90022857D01*
X135874285Y-90118095D01*
X135921904Y-90260952D01*
X136493333Y-90832380D01*
X135874285Y-90832380D01*
X135493333Y-89927619D02*
X135445714Y-89880000D01*
X135350476Y-89832380D01*
X135112380Y-89832380D01*
X135017142Y-89880000D01*
X134969523Y-89927619D01*
X134921904Y-90022857D01*
X134921904Y-90118095D01*
X134969523Y-90260952D01*
X135540952Y-90832380D01*
X134921904Y-90832380D01*
%TO.C,J23-44*%
X147160952Y-89832380D02*
X147160952Y-90546666D01*
X147208571Y-90689523D01*
X147303809Y-90784761D01*
X147446666Y-90832380D01*
X147541904Y-90832380D01*
X146732380Y-89927619D02*
X146684761Y-89880000D01*
X146589523Y-89832380D01*
X146351428Y-89832380D01*
X146256190Y-89880000D01*
X146208571Y-89927619D01*
X146160952Y-90022857D01*
X146160952Y-90118095D01*
X146208571Y-90260952D01*
X146780000Y-90832380D01*
X146160952Y-90832380D01*
X145827619Y-89832380D02*
X145208571Y-89832380D01*
X145541904Y-90213333D01*
X145399047Y-90213333D01*
X145303809Y-90260952D01*
X145256190Y-90308571D01*
X145208571Y-90403809D01*
X145208571Y-90641904D01*
X145256190Y-90737142D01*
X145303809Y-90784761D01*
X145399047Y-90832380D01*
X145684761Y-90832380D01*
X145780000Y-90784761D01*
X145827619Y-90737142D01*
X144780000Y-90451428D02*
X144018095Y-90451428D01*
X143113333Y-90165714D02*
X143113333Y-90832380D01*
X143351428Y-89784761D02*
X143589523Y-90499047D01*
X142970476Y-90499047D01*
X142160952Y-90165714D02*
X142160952Y-90832380D01*
X142399047Y-89784761D02*
X142637142Y-90499047D01*
X142018095Y-90499047D01*
D11*
%TO.C,J1-22*%
X135830000Y-93980000D02*
X135830000Y-147380000D01*
X138490000Y-93980000D02*
X138490000Y-147380000D01*
X138490000Y-147380000D02*
X135830000Y-147380000D01*
X138490000Y-91380000D02*
X137160000Y-91380000D01*
X138490000Y-92710000D02*
X138490000Y-91380000D01*
X138490000Y-93980000D02*
X135830000Y-93980000D01*
%TO.C,J23-44*%
X143450000Y-93980000D02*
X143450000Y-147380000D01*
X146110000Y-93980000D02*
X146110000Y-147380000D01*
X146110000Y-92710000D02*
X146110000Y-91380000D01*
X146110000Y-147380000D02*
X143450000Y-147380000D01*
X146110000Y-93980000D02*
X143450000Y-93980000D01*
X146110000Y-91380000D02*
X144780000Y-91380000D01*
%TD*%
M02*
