M48
; DRILL file {KiCad (6.0.4)} date Thu May  5 12:14:09 2022
; FORMAT={-:-/ absolute / inch / decimal}
; #@! TF.CreationDate,2022-05-05T12:14:09+01:00
; #@! TF.GenerationSoftware,Kicad,Pcbnew,(6.0.4)
; #@! TF.FileFunction,Plated,1,2,PTH
FMAT,2
INCH
; #@! TA.AperFunction,Plated,PTH,ViaDrill
T1C0.0157
; #@! TA.AperFunction,Plated,PTH,ComponentDrill
T2C0.0300
; #@! TA.AperFunction,Plated,PTH,ComponentDrill
T3C0.0315
%
G90
G05
T1
X5.1028Y-2.9409
X5.216Y-4.409
X5.2417Y-4.788
X5.2482Y-4.8343
X5.2495Y-4.728
X5.2691Y-4.6412
X5.3069Y-5.3611
X5.3203Y-5.4703
X5.3659Y-6.1365
X5.4Y-2.9143
X5.4029Y-6.1939
X5.4606Y-4.0894
X5.4652Y-6.0659
X5.4685Y-4.1517
X5.487Y-6.2388
X5.5008Y-6.0936
X5.5027Y-3.8482
X5.5032Y-6.1981
X5.5229Y-6.0138
X5.5441Y-6.1967
X5.5559Y-6.0775
X5.5717Y-6.2256
X5.5956Y-6.085
X5.6343Y-6.1238
X5.6602Y-2.7397
X5.75Y-5.1138
X5.7809Y-5.5366
X5.822Y-5.8532
X5.8417Y-6.0354
X5.8418Y-6.2059
X5.8422Y-6.1666
X5.8425Y-6.0956
X5.8466Y-5.8103
T2
X5.7Y-3.65
X5.7Y-3.75
X5.7Y-3.85
X5.7Y-3.95
X5.7Y-4.05
X5.7Y-4.15
X5.7Y-4.25
X5.7Y-4.35
X5.7Y-4.45
X5.7Y-4.55
X5.7Y-4.65
X5.7Y-4.75
X5.7Y-4.85
X5.7Y-4.95
X5.7Y-5.05
X5.7Y-5.15
X5.7Y-5.25
X5.7Y-5.35
X5.7Y-5.45
X5.7Y-5.55
X5.7Y-5.65
X5.7Y-5.75
T3
X5.2Y-2.8
X5.2Y-2.9
X5.2Y-3.0
X5.2Y-3.1
X5.2Y-3.2
X5.2Y-3.3
X5.3Y-2.7
X5.3Y-2.8
X5.3Y-2.9
X5.3Y-3.0
X5.3Y-3.1
X5.3Y-3.2
X5.3Y-3.3
X5.3Y-3.4
X5.4Y-2.7
X5.4Y-2.8
X5.4Y-3.3
X5.4Y-3.4
X5.4Y-3.65
X5.4Y-3.75
X5.4Y-3.85
X5.4Y-3.95
X5.4Y-4.05
X5.4Y-4.15
X5.4Y-4.25
X5.4Y-4.35
X5.4Y-4.45
X5.4Y-4.55
X5.4Y-4.65
X5.4Y-4.75
X5.4Y-4.85
X5.4Y-4.95
X5.4Y-5.05
X5.4Y-5.15
X5.4Y-5.25
X5.4Y-5.35
X5.4Y-5.45
X5.4Y-5.55
X5.4Y-5.65
X5.4Y-5.75
X5.5Y-2.7
X5.5Y-2.8
X5.5Y-3.3
X5.5Y-3.4
X5.6Y-2.7
X5.6Y-2.8
X5.6Y-3.3
X5.6Y-3.4
X5.7Y-2.7
X5.7Y-2.8
X5.7Y-3.3
X5.7Y-3.4
X5.8Y-2.7
X5.8Y-2.8
X5.8Y-2.9
X5.8Y-3.0
X5.8Y-3.1
X5.8Y-3.2
X5.8Y-3.3
X5.8Y-3.4
X5.9Y-2.8
X5.9Y-2.9
X5.9Y-3.0
X5.9Y-3.1
X5.9Y-3.2
X5.9Y-3.3
T0
M30
